<svg width="404" height="98" viewBox="0 0 404 98" fill="none" xmlns="http://www.w3.org/2000/svg">
<path fill-rule="evenodd" clip-rule="evenodd" d="M44.1637 74.7671C68.0866 74.7671 87.4805 76.0597 87.4805 77.6539C87.4805 79.2481 68.0866 80.5407 44.1637 80.5407C20.2408 80.5407 0.846924 79.2481 0.846924 77.6539C0.846924 76.0597 20.2408 74.7671 44.1637 74.7671Z" fill="#B3B3B3"/>
<path fill-rule="evenodd" clip-rule="evenodd" d="M0 2.31519L0.761571 1.0498C0.761571 1.0498 4.64769 4.84558 17.8296 4.76659L17.6009 6.07165C17.6009 6.07165 6.51477 6.94209 0 2.31519Z" fill="#9BD302"/>
<path fill-rule="evenodd" clip-rule="evenodd" d="M16.3283 10.4019C15.7595 10.513 16.9387 21.3965 26.2341 28.5939C35.5291 35.7912 55.4926 38.4792 66.6172 35.3161C77.7423 32.153 43.073 18.1529 43.073 18.1529L16.3283 10.4019Z" fill="#80AB03"/>
<path fill-rule="evenodd" clip-rule="evenodd" d="M99.4753 48.7427C99.4753 48.7427 96.505 42.6134 85.8376 40.6363C75.1703 38.6593 15.6586 39.4998 15.3551 6.13719L15.3974 4.73613C15.3974 4.73613 30.0042 0 51.3388 0C72.6731 0 92.0678 5.57744 97.3247 19.8932C102.581 34.2089 97.1717 30.8081 99.4753 48.7427Z" fill="#9BD302"/>
<path fill-rule="evenodd" clip-rule="evenodd" d="M16.6318 5.40096C16.6318 5.40096 19.2983 4.68927 39.9478 8.5648C60.5976 12.4403 89.856 19.7167 97.1713 41.6259C97.1713 41.6259 91.3047 25.8868 66.2359 17.977C41.167 10.0672 16.6318 5.40096 16.6318 5.40096Z" fill="#C2EB4F"/>
<path fill-rule="evenodd" clip-rule="evenodd" d="M50.4907 33.7807C50.4907 33.7807 50.6434 24.2888 55.672 20.9673C55.672 20.9673 56.6619 20.9083 55.7287 22.0547C54.7959 23.2014 51.8997 24.7631 50.4907 33.7807ZM29.966 56.4155C29.6061 57.219 29.1893 58.1424 28.7331 59.139C27.2224 55.3897 26.8441 52.4447 31.2544 52.3226C30.4989 53.4928 29.9958 54.8674 29.966 56.4155ZM28.0067 60.7151C25.2918 66.5681 21.6861 73.8773 20.375 74.4166C18.1655 75.3264 14.8962 73.3999 14.0889 74.852C13.2816 76.3041 16.7935 74.6937 19.1557 75.6824C21.5183 76.6707 22.1283 76.0777 23.9187 72.0835C24.8012 70.1151 26.6831 65.6383 28.3646 61.6048C29.6213 64.6344 31.2767 67.7896 32.0715 70.224C33.5947 74.8902 32.9476 75.8389 31.4619 75.8789C29.9758 75.919 24.2626 76.6394 23.918 77.975C23.5729 79.3111 24.1084 79.3591 25.9374 78.3704C27.7663 77.382 29.4803 76.8676 31.8807 77.1443C34.281 77.4213 35.0808 77.1443 35.0808 75.7999C35.0808 74.4556 32.3754 67.2189 29.8609 61.7216C29.5831 61.1142 29.3136 60.5144 29.0626 59.9305L30.0242 57.6128C30.5605 62.3981 34.5747 65.4984 34.5747 65.4984C34.5747 65.4984 42.0427 63.8366 44.0995 55.9276C44.0995 55.9276 45.5331 54.6436 47.0596 52.5607C49.1096 55.0329 52.3982 59.3885 52.3982 61.8932C52.3982 65.5321 38.8282 71.8662 38.9419 73.804C39.0561 75.7417 40.9617 74.7137 44.0855 73.7242C47.2097 72.7351 48.6576 73.1713 49.686 74.4367C50.7144 75.7024 51.363 72.1825 47.6292 72.1825C43.8958 72.1825 41.9142 74.7927 41.9142 73.4876C41.9142 72.1825 53.6103 65.3012 53.6103 61.7023C53.6103 59.2894 50.3062 54.1221 48.1277 50.9775C48.5956 50.2186 49.0427 49.392 49.4267 48.5136C54.6187 55.1803 66.3318 74.7129 69.1676 74.7129C72.2536 74.7129 73.3209 66.4875 72.6723 66.4875C72.0242 66.4875 70.6155 72.2222 68.9389 72.2222C67.262 72.2222 65.0914 68.5036 60.1772 62.5323C56.3675 57.9027 51.6642 50.7315 49.7427 47.7411C49.9203 47.2739 50.0787 46.7947 50.2114 46.3049C50.5323 46.3608 50.8943 46.3982 51.2454 46.3752C53.3782 47.9562 56.1256 48.4535 57.5784 48.4535C58.3498 48.4535 59.0604 48.2986 59.6776 47.9822C60.7997 49.3073 63.2008 51.5183 66.7222 51.5183C71.7513 51.5183 67.37 42.9558 67.37 40.9988C67.37 39.0414 69.5414 38.725 69.5414 38.725H68.4744C65.2735 38.725 65.8839 42.8383 67.1792 44.8154C68.4744 46.7928 68.6271 49.8769 66.1889 49.8769C64.4995 49.8769 62.2265 48.0181 60.9887 46.8752C61.6728 45.9685 62.0742 44.6597 62.0742 42.9169C62.0742 39.1204 59.7879 34.6911 54.3023 34.6911C54.3023 34.6911 48.2823 33.9005 48.2823 40.3861C48.2823 40.9542 48.3341 41.4837 48.4305 41.9788C48.3564 42.7914 48.3254 43.8176 48.4048 45.0527C48.4048 45.0527 47.6874 44.9688 46.5656 45.3347C37.9366 44.0356 34.8774 43.6675 34.8774 42.2634C34.8774 40.7603 40.1571 35.5922 39.8683 34.4731C39.5792 33.3536 37.2778 33.2863 35.2203 33.2863C33.1627 33.2863 32.6679 30.7551 32.211 31.0322C30.6871 35.0268 39.1067 33.2466 39.1067 34.5517C39.1067 35.8568 33.2394 40.3257 33.2394 42.8175C33.2394 44.6124 40.6749 45.6892 44.832 46.1507C43.9634 46.6866 42.997 47.4799 42.0037 48.6516C42.0037 48.6516 40.4031 47.8602 38.0417 47.8602C36.6073 47.8602 33.9367 49.0855 32.0602 51.2523C30.3269 51.2035 27.5811 51.5701 26.8898 54.2468C26.4495 55.9506 27.0531 58.2629 28.0067 60.7151ZM74.3512 25.4612C74.3021 23.9769 66.2449 24.6856 58.7395 34.4542C58.7395 34.4542 65.3684 26.4268 70.9307 26.4268C72.8934 26.7662 74.448 25.9937 74.3512 25.4612Z" fill="#2B2A29"/>
<path d="M115.52 77.6191L107 40H114.541L119.932 65.8416L126.546 40H135.269L141.595 66.279L147.112 40H154.478L145.746 77.6191H137.909L130.763 49.4918L123.568 77.6191H115.52ZM155.735 63.6522C155.735 61.2529 156.299 58.9323 157.438 56.6909C158.577 54.4403 160.189 52.7325 162.272 51.5506C164.357 50.3681 166.676 49.7728 169.249 49.7728C173.222 49.7728 176.47 51.1122 179.009 53.7919C181.548 56.4799 182.814 59.8605 182.814 63.9583C182.814 68.0917 181.531 71.5161 178.975 74.2297C176.411 76.9451 173.188 78.3024 169.3 78.3024C166.895 78.3024 164.601 77.7328 162.415 76.6034C160.239 75.4734 158.577 73.8186 157.438 71.6298C156.299 69.4496 155.735 66.7874 155.735 63.6522ZM162.872 64.0376C162.872 66.7436 163.487 68.8193 164.718 70.2543C165.958 71.6997 167.477 72.418 169.291 72.418C171.096 72.418 172.615 71.6997 173.837 70.2543C175.061 68.8193 175.676 66.7256 175.676 63.9846C175.676 61.3136 175.061 59.2559 173.837 57.8204C172.615 56.375 171.096 55.6572 169.291 55.6572C167.477 55.6572 165.958 56.375 164.718 57.8204C163.487 59.2559 162.872 61.3316 162.872 64.0376ZM194.903 77.6191H187.969V50.3512H194.397V54.2205C195.501 52.3908 196.497 51.1909 197.383 50.6218C198.269 50.0532 199.272 49.7728 200.395 49.7728C201.981 49.7728 203.507 50.2282 204.975 51.1302L202.825 57.4169C201.651 56.6291 200.563 56.2356 199.559 56.2356C198.581 56.2356 197.754 56.5149 197.08 57.0676C196.404 57.6279 195.873 58.6256 195.485 60.0792C195.096 61.5333 194.903 64.5799 194.903 69.2124V77.6191ZM207.717 77.6191V40H214.651V59.9573L222.775 50.3512H231.329L222.37 60.3159L231.987 77.6191H224.496L217.865 65.3163L214.651 68.8888V77.6191H207.717Z" fill="#2B2A29"/>
<path d="M261.125 71.9147C258.898 73.4557 256.536 74.6557 254.039 75.5145C251.542 76.3728 249.028 76.8014 246.498 76.8014C245.013 76.8014 243.561 76.6434 242.144 76.3285C240.12 75.8731 238.635 74.9104 237.69 73.4388C236.746 71.9677 236.273 70.2168 236.273 68.1848C236.273 65.8374 236.838 63.4211 237.969 60.9343C239.098 58.447 240.491 56.521 242.144 55.1549C244.708 53.0529 246.717 51.5299 248.168 50.5836C251.069 48.6922 253.432 47.7459 255.254 47.7459C256.063 47.7459 256.789 47.9306 257.43 48.2986C258.072 48.6659 258.612 49.2525 259.05 50.0583C255.642 50.8635 252.739 51.8093 250.343 52.8955C247.071 54.4016 244.507 56.1876 242.65 58.254C240.457 60.7063 239.36 63.561 239.36 66.8186C239.36 69.4104 240.137 71.3543 241.689 72.651C243.073 73.8067 244.945 74.3851 247.307 74.3851C249.973 74.3851 252.655 73.7187 255.355 72.3881C258.054 71.0564 259.978 69.4454 261.125 67.5545C260.18 66.7487 259.506 66.1703 259.1 65.8204C258.392 65.2251 257.692 64.831 257 64.638C256.308 64.445 255.658 64.3493 255.051 64.3493C254.343 64.3493 253.735 64.5423 253.229 64.9277C251.744 66.0134 250.63 66.6437 249.889 66.8186C249.483 66.8886 249.18 66.9236 248.977 66.9236C248.471 66.9236 247.923 66.8274 247.333 66.6344C246.742 66.442 246.193 66.2583 245.687 66.0834C245.89 64.3674 246.574 63.0969 247.737 62.2736C248.901 61.4504 250.361 61.0393 252.115 61.0393C254.715 61.0393 257.245 61.8013 259.708 63.3243C262.171 64.8484 263.403 66.5207 263.403 68.3428C263.403 68.9731 263.217 69.5941 262.846 70.2075C262.475 70.8208 261.902 71.3893 261.125 71.9147ZM282.941 59.5069C281.118 60.6276 279.483 61.8013 278.031 63.0269C276.344 64.4723 274.927 65.9784 273.779 67.5545C273.206 68.3597 272.699 69.8483 272.26 72.0284C271.586 75.4965 270.22 77.4055 268.161 77.7652C267.992 76.9851 267.823 76.0918 267.655 75.0761C267.486 74.0604 267.402 73.1322 267.402 72.2914C267.402 71.801 267.418 71.4331 267.452 71.1887C267.452 69.857 267.284 68.5783 266.946 67.3527C265.9 63.561 265.36 61.4416 265.327 60.9873C266.643 61.1267 267.815 61.6433 268.844 62.5366C269.873 63.4304 270.641 63.877 271.147 63.877C271.552 63.877 272.016 63.771 272.539 63.561C273.062 63.3517 273.711 62.9826 274.488 62.4573C276.175 61.2317 277.93 59.988 279.752 58.7186C281.575 57.458 283.328 56.5123 285.016 55.8726C285.084 56.7916 285.118 57.37 285.118 57.6149C285.118 57.9653 284.864 58.2983 284.358 58.6137C283.852 58.9286 283.38 59.227 282.941 59.5069ZM288.509 73.3421C287.968 72.5368 287.581 71.7397 287.344 70.9607C287.109 70.1724 286.99 69.4104 286.99 68.6751C286.99 65.8117 288.661 63.2286 292.001 60.925C294.903 58.8935 297.957 57.7117 301.162 57.3613C301.433 57.3613 301.719 57.3443 302.023 57.3093C302.327 57.2743 302.547 57.2563 302.681 57.2563C306.596 57.2563 308.974 59.8136 309.818 64.9277C310.222 69.201 310.627 73.4738 311.032 77.7471C310.256 77.9221 309.649 78.0101 309.21 78.0101C307.827 78.0101 306.907 77.0288 306.452 75.0673C305.996 73.1064 305.633 71.8097 305.364 71.1794C303.001 72.598 301.145 73.6755 299.796 74.402C297.366 75.7244 295.324 76.3805 293.671 76.3805C292.625 76.3805 291.689 76.153 290.863 75.6982C290.035 75.2428 289.25 74.4638 288.509 73.3421ZM299.745 60.251C297.923 60.4614 296.185 61.1787 294.531 62.3967C292.878 63.6141 291.816 65.0846 291.344 66.7924C291.073 67.7294 290.939 68.5527 290.939 69.253C290.939 71.696 292.069 72.9135 294.33 72.9135C294.903 72.9135 295.544 72.8085 296.253 72.598C298.345 72.0377 300.319 71.0657 302.175 69.6733C304.031 68.2717 305.566 66.5825 306.781 64.5942C306.241 64.2793 305.229 63.3517 303.744 61.8183C302.698 60.7413 301.584 60.199 300.403 60.199C300.133 60.199 299.914 60.216 299.745 60.251ZM327.179 57.3613C328.191 57.2913 328.95 57.2383 329.456 57.2033C329.963 57.1683 330.402 57.1513 330.773 57.1513C332.561 57.1513 333.877 57.5192 334.721 58.254C335.8 59.2003 336.341 60.8462 336.341 63.1936C336.037 66.7317 334.282 69.7264 331.077 72.1777C328.478 74.1741 325.306 75.5577 321.561 76.3285C319.469 76.7494 318.034 77.7471 317.258 79.3232C316.685 80.4788 316.398 82.2309 316.398 84.5772C316.398 85.2425 316.44 86.3812 316.524 87.9923C316.609 89.6039 316.651 90.4616 316.651 90.5665C316.651 92.2836 316.482 93.6322 316.137 94.613C315.689 95.8736 314.921 96.8193 313.825 97.4497C313.689 96.6794 313.581 95.7599 313.512 94.6912C313.445 93.623 313.412 92.616 313.412 91.6702C313.412 90.4446 313.479 88.5356 313.614 85.9439C313.749 83.3516 313.817 81.3371 313.817 79.9016C313.817 79.0608 313.682 78.0975 313.412 77.0118C313.142 75.9262 313.006 75.0849 313.006 74.4895C313.006 74.314 313.04 73.9467 313.108 73.3858C313.378 71.8797 313.53 70.9695 313.564 70.6541C313.732 69.5334 313.817 68.4996 313.817 67.5545C313.817 65.7674 313.969 64.2793 314.271 63.0887C314.575 61.8969 315.133 60.4614 315.942 58.7793C316.853 59.1302 317.697 59.3052 318.473 59.3052C319.384 59.3052 320.742 58.9816 322.547 58.3332C324.353 57.686 325.897 57.3613 327.179 57.3613ZM332.798 64.6117C332.932 64.0164 332.999 63.4211 332.999 62.8258C332.999 61.704 332.73 60.908 332.19 60.4346C331.65 59.9623 330.874 59.7256 329.861 59.7256C328.546 59.7256 326.858 60.128 324.8 60.9343C323.248 61.5296 321.696 62.2823 320.143 63.1936C318.895 63.8939 318 64.8566 317.461 66.0834C316.921 67.309 316.651 68.6921 316.651 70.2337C316.651 71.0395 316.719 71.9147 316.853 72.8604C316.988 73.8067 317.157 74.7175 317.36 75.5927C321.443 74.6125 324.581 73.4908 326.774 72.2301C330.216 70.2687 332.224 67.7294 332.798 64.6117ZM337.606 57.352C337.606 56.7217 337.606 56.0569 337.606 55.3566C337.606 54.6552 337.606 53.92 337.606 53.1492C337.606 49.3312 337.943 46.5645 338.618 44.8485C339.192 43.3769 340.052 42.4219 341.2 42.0015C341.571 43.7978 341.756 45.7413 341.756 47.8432C341.756 49.2443 341.495 52.4139 340.963 57.352C340.719 59.6644 340.592 61.6346 340.592 63.2456C340.592 65.312 340.777 67.2391 341.149 69.025C342.668 68.4647 344.152 67.2571 345.603 65.4C349.046 61.0223 351.306 58.5699 352.385 58.0446C353.095 57.7286 353.702 57.5717 354.208 57.5717C355.22 57.5717 355.895 58.254 356.233 59.6206C356.468 60.5314 356.587 61.9669 356.587 63.9289C356.587 64.744 356.688 65.7417 356.891 66.9324C356.958 67.3527 357.329 69.0168 358.005 71.9234C358.139 72.4843 358.325 73.1671 358.56 73.9734C358.797 74.7787 358.915 75.3221 358.915 75.6014C358.915 75.9868 358.755 76.3285 358.434 76.6265C358.114 76.9238 357.498 77.3005 356.587 77.7652C355.169 72.6768 353.769 67.5714 352.385 62.4573C351.643 63.2286 350.226 64.8927 348.134 67.449C346.244 69.7614 344.759 71.4074 343.68 72.3881C341.925 73.9642 340.137 75.0324 338.314 75.5927C338.053 74.1222 337.867 72.598 337.758 71.0214C337.657 69.4454 337.606 67.6594 337.606 65.663C337.606 64.7517 337.606 63.3593 337.606 61.5033C337.606 59.6463 337.606 58.2633 337.606 57.352ZM368.532 44.2259C369.326 44.3658 369.764 44.7255 369.832 45.3039C369.908 45.8812 369.975 46.2409 370.051 46.3809C369.747 46.4853 369.157 46.7832 368.28 47.2735C367.807 47.5545 367.453 47.7459 367.216 47.8519C367.115 47.0111 367.064 46.4508 367.064 46.1698C367.064 45.8555 367.157 45.4526 367.343 44.9622C367.529 44.4719 367.722 43.9815 367.925 43.4911L368.532 44.2259ZM367.925 61.7313C368.329 63.5173 368.532 65.5487 368.532 67.8251C368.532 70.2424 368.296 72.2563 367.823 73.8674C367.25 75.8644 366.356 77.1606 365.141 77.7652C364.871 76.2148 364.669 74.7612 364.533 73.3951C364.398 72.0284 364.331 70.9077 364.331 70.033C364.331 67.8961 364.593 66.0921 365.116 64.621C365.639 63.1494 366.575 62.1867 367.925 61.7313ZM392.524 57.3613H393.942L394.65 58.0446V59.5157C390.905 60.427 387.395 61.897 384.122 63.9289C381.659 65.435 379.879 66.8094 378.782 68.053C377.686 69.2967 377.137 70.4441 377.137 71.4954C377.137 72.1601 377.364 72.7997 377.82 73.4131C378.276 74.0254 378.959 74.4808 379.87 74.7787C380.782 75.0761 381.794 75.2248 382.907 75.2248C384.021 75.2248 385.362 75.0941 386.932 74.8312C388.5 74.5688 389.91 74.3321 391.158 74.1221C394.869 73.1414 398.582 72.1426 402.293 71.1264C402.631 71.1264 402.9 71.1444 403.103 71.1794C402.125 73.5968 399.711 75.3128 395.865 76.3285C394.481 76.7145 391.258 77.1868 386.197 77.7471C385.185 77.8521 384.105 77.9051 382.958 77.9051C380.36 77.9051 378.318 77.5372 376.833 76.8014C374.978 75.8901 374.049 74.4021 374.049 72.3351C374.049 72.0557 374.049 71.8097 374.049 71.5998C374.049 71.3893 374.117 71.0127 374.252 70.4874C375.028 67.0204 377.357 63.9377 381.236 61.241C384.409 59.069 387.935 57.528 391.816 56.6079L392.524 57.3613Z" fill="#96C12B"/>
</svg>
