<svg width="205" height="125" viewBox="0 0 205 125" fill="none" xmlns="http://www.w3.org/2000/svg">
<path fill-rule="evenodd" clip-rule="evenodd" d="M96.6664 74.7671C120.589 74.7671 139.983 76.0597 139.983 77.6539C139.983 79.2481 120.589 80.5407 96.6664 80.5407C72.7435 80.5407 53.3496 79.2481 53.3496 77.6539C53.3496 76.0597 72.7435 74.7671 96.6664 74.7671Z" fill="#B3B3B3"/>
<path fill-rule="evenodd" clip-rule="evenodd" d="M52.5026 2.31519L53.2641 1.0498C53.2641 1.0498 57.1503 4.84558 70.3321 4.76659L70.1034 6.07165C70.1034 6.07165 59.0173 6.94209 52.5026 2.31519Z" fill="#9BD302"/>
<path fill-rule="evenodd" clip-rule="evenodd" d="M68.8309 10.4019C68.2621 10.513 69.4413 21.3965 78.7367 28.5939C88.0317 35.7912 107.995 38.4792 119.12 35.3161C130.245 32.153 95.5756 18.1529 95.5756 18.1529L68.8309 10.4019Z" fill="#80AB03"/>
<path fill-rule="evenodd" clip-rule="evenodd" d="M151.978 48.7427C151.978 48.7427 149.008 42.6134 138.34 40.6363C127.673 38.6593 68.1612 39.4998 67.8577 6.13719L67.9 4.73613C67.9 4.73613 82.5067 0 103.841 0C125.176 0 144.57 5.57744 149.827 19.8932C155.084 34.2089 149.674 30.8081 151.978 48.7427Z" fill="#9BD302"/>
<path fill-rule="evenodd" clip-rule="evenodd" d="M69.1344 5.40096C69.1344 5.40096 71.8009 4.68927 92.4503 8.5648C113.1 12.4403 142.359 19.7167 149.674 41.6259C149.674 41.6259 143.807 25.8868 118.738 17.977C93.6696 10.0672 69.1344 5.40096 69.1344 5.40096Z" fill="#C2EB4F"/>
<path fill-rule="evenodd" clip-rule="evenodd" d="M102.993 33.7807C102.993 33.7807 103.146 24.2888 108.175 20.9673C108.175 20.9673 109.164 20.9083 108.231 22.0547C107.299 23.2014 104.402 24.7631 102.993 33.7807ZM82.4685 56.4155C82.1087 57.219 81.6918 58.1424 81.2356 59.139C79.725 55.3897 79.3466 52.4447 83.757 52.3226C83.0014 53.4928 82.4984 54.8674 82.4685 56.4155ZM80.5092 60.7151C77.7944 66.5681 74.1887 73.8773 72.8776 74.4166C70.6681 75.3264 67.3988 73.3999 66.5915 74.852C65.7842 76.3041 69.2961 74.6937 71.6583 75.6824C74.0209 76.6707 74.6309 76.0777 76.4213 72.0835C77.3038 70.1151 79.1856 65.6383 80.8671 61.6048C82.1238 64.6344 83.7793 67.7896 84.5741 70.224C86.0972 74.8902 85.4502 75.8389 83.9645 75.8789C82.4783 75.919 76.7652 76.6394 76.4205 77.975C76.0754 79.3111 76.611 79.3591 78.4399 78.3704C80.2688 77.382 81.9829 76.8676 84.3832 77.1443C86.7836 77.4213 87.5834 77.1443 87.5834 75.7999C87.5834 74.4556 84.878 67.2189 82.3634 61.7216C82.0856 61.1142 81.8162 60.5144 81.5652 59.9305L82.5267 57.6128C83.063 62.3981 87.0773 65.4984 87.0773 65.4984C87.0773 65.4984 94.5452 63.8366 96.602 55.9276C96.602 55.9276 98.0356 54.6436 99.5622 52.5607C101.612 55.0329 104.901 59.3885 104.901 61.8932C104.901 65.5321 91.3307 71.8662 91.4445 73.804C91.5586 75.7417 93.4643 74.7137 96.5881 73.7242C99.7122 72.7351 101.16 73.1713 102.189 74.4367C103.217 75.7024 103.866 72.1825 100.132 72.1825C96.3983 72.1825 94.4167 74.7927 94.4167 73.4876C94.4167 72.1825 106.113 65.3012 106.113 61.7023C106.113 59.2894 102.809 54.1221 100.63 50.9775C101.098 50.2186 101.545 49.392 101.929 48.5136C107.121 55.1803 118.834 74.7129 121.67 74.7129C124.756 74.7129 125.823 66.4875 125.175 66.4875C124.527 66.4875 123.118 72.2222 121.441 72.2222C119.765 72.2222 117.594 68.5036 112.68 62.5323C108.87 57.9027 104.167 50.7315 102.245 47.7411C102.423 47.2739 102.581 46.7947 102.714 46.3049C103.035 46.3608 103.397 46.3982 103.748 46.3752C105.881 47.9562 108.628 48.4535 110.081 48.4535C110.852 48.4535 111.563 48.2986 112.18 47.9822C113.302 49.3073 115.703 51.5183 119.225 51.5183C124.254 51.5183 119.873 42.9558 119.873 40.9988C119.873 39.0414 122.044 38.725 122.044 38.725H120.977C117.776 38.725 118.387 42.8383 119.682 44.8154C120.977 46.7928 121.13 49.8769 118.692 49.8769C117.002 49.8769 114.729 48.0181 113.491 46.8752C114.175 45.9685 114.577 44.6597 114.577 42.9169C114.577 39.1204 112.29 34.6911 106.805 34.6911C106.805 34.6911 100.785 33.9005 100.785 40.3861C100.785 40.9542 100.837 41.4837 100.933 41.9788C100.859 42.7914 100.828 43.8176 100.907 45.0527C100.907 45.0527 100.19 44.9688 99.0682 45.3347C90.4391 44.0356 87.38 43.6675 87.38 42.2634C87.38 40.7603 92.6596 35.5922 92.3709 34.4731C92.0817 33.3536 89.7804 33.2863 87.7228 33.2863C85.6652 33.2863 85.1705 30.7551 84.7136 31.0322C83.1896 35.0268 91.6093 33.2466 91.6093 34.5517C91.6093 35.8568 85.742 40.3257 85.742 42.8175C85.742 44.6124 93.1774 45.6892 97.3345 46.1507C96.466 46.6866 95.4996 47.4799 94.5063 48.6516C94.5063 48.6516 92.9057 47.8602 90.5442 47.8602C89.1099 47.8602 86.4393 49.0855 84.5628 51.2523C82.8295 51.2035 80.0836 51.5701 79.3924 54.2468C78.952 55.9506 79.5556 58.2629 80.5092 60.7151ZM126.854 25.4612C126.805 23.9769 118.747 24.6856 111.242 34.4542C111.242 34.4542 117.871 26.4268 123.433 26.4268C125.396 26.7662 126.951 25.9937 126.854 25.4612Z" fill="#2B2A29"/>
<path d="M5.89039 110.739L0 84.7305H5.21386L8.94084 102.597L13.5133 84.7305H19.5443L23.9184 102.899L27.7327 84.7305H32.8248L26.7878 110.739H21.3698L16.4292 91.2929L11.455 110.739H5.89039ZM33.6937 101.083C33.6937 99.4241 34.0842 97.8197 34.8718 96.2701C35.6591 94.7141 36.7733 93.5334 38.2137 92.7162C39.6548 91.8987 41.2581 91.4871 43.0371 91.4871C45.7841 91.4871 48.0295 92.4131 49.7851 94.2658C51.5407 96.1242 52.4156 98.4615 52.4156 101.295C52.4156 104.152 51.5289 106.52 49.7616 108.396C47.9887 110.273 45.7606 111.212 43.0722 111.212C41.4096 111.212 39.8237 110.818 38.3127 110.037C36.8081 109.256 35.6591 108.112 34.8718 106.598C34.0842 105.091 33.6937 103.251 33.6937 101.083ZM38.6283 101.349C38.6283 103.22 39.0539 104.655 39.9046 105.647C40.7622 106.647 41.8122 107.143 43.0662 107.143C44.3142 107.143 45.3642 106.647 46.2096 105.647C47.0555 104.655 47.4811 103.208 47.4811 101.313C47.4811 99.4661 47.0555 98.0435 46.2096 97.051C45.3642 96.0517 44.3142 95.5554 43.0662 95.5554C41.8122 95.5554 40.7622 96.0517 39.9046 97.051C39.0539 98.0435 38.6283 99.4786 38.6283 101.349ZM60.7737 110.739H55.9797V91.887H60.4237V94.5621C61.1875 93.2971 61.8762 92.4675 62.4881 92.0741C63.1011 91.681 63.7946 91.4871 64.5706 91.4871C65.667 91.4871 66.7226 91.802 67.7374 92.4256L66.2506 96.772C65.4395 96.2274 64.687 95.9553 63.9931 95.9553C63.3165 95.9553 62.7451 96.1484 62.2787 96.5305C61.8115 96.9179 61.4442 97.6077 61.1762 98.6127C60.9075 99.618 60.7737 101.724 60.7737 104.927V110.739ZM69.6329 110.739V84.7305H74.4268V98.5284L80.044 91.887H85.9578L79.7639 98.7763L86.4128 110.739H81.2334L76.6488 102.233L74.4268 104.703V110.739H69.6329Z" fill="#2B2A29"/>
<path d="M106.558 106.795C105.018 107.861 103.385 108.691 101.659 109.284C99.9322 109.878 98.1944 110.174 96.4448 110.174C95.4183 110.174 94.4148 110.065 93.4348 109.847C92.0353 109.532 91.0087 108.867 90.3553 107.849C89.7025 106.832 89.376 105.622 89.376 104.217C89.376 102.594 89.7664 100.923 90.5484 99.2039C91.3292 97.4842 92.2919 96.1527 93.4348 95.2082C95.2078 93.7549 96.5964 92.702 97.5999 92.0477C99.6057 90.74 101.239 90.0858 102.499 90.0858C103.058 90.0858 103.56 90.2135 104.003 90.4679C104.447 90.7219 104.82 91.1274 105.123 91.6845C102.767 92.2413 100.76 92.8951 99.1037 93.6461C96.8413 94.6874 95.0683 95.9221 93.7848 97.3508C92.2688 99.0463 91.5103 101.02 91.5103 103.272C91.5103 105.064 92.047 106.408 93.1204 107.305C94.077 108.104 95.3714 108.503 97.0042 108.503C98.8479 108.503 100.702 108.043 102.569 107.123C104.435 106.202 105.765 105.088 106.558 103.781C105.905 103.224 105.438 102.824 105.158 102.582C104.668 102.17 104.184 101.898 103.706 101.765C103.228 101.631 102.778 101.565 102.359 101.565C101.869 101.565 101.449 101.698 101.099 101.965C100.072 102.715 99.3022 103.151 98.7893 103.272C98.5092 103.321 98.2994 103.345 98.1592 103.345C97.8092 103.345 97.4302 103.278 97.0223 103.145C96.6138 103.012 96.2343 102.885 95.8847 102.764C96.0249 101.577 96.4974 100.699 97.3017 100.13C98.1067 99.5607 99.1158 99.2765 100.329 99.2765C102.126 99.2765 103.875 99.8033 105.578 100.856C107.281 101.91 108.133 103.066 108.133 104.326C108.133 104.762 108.004 105.191 107.748 105.615C107.491 106.039 107.095 106.432 106.558 106.795ZM121.641 98.2171C120.381 98.9919 119.25 99.8033 118.246 100.651C117.08 101.65 116.1 102.691 115.307 103.781C114.91 104.338 114.56 105.367 114.257 106.874C113.79 109.272 112.846 110.592 111.422 110.84C111.306 110.301 111.189 109.683 111.072 108.981C110.956 108.279 110.897 107.637 110.897 107.056C110.897 106.717 110.909 106.462 110.932 106.294C110.932 105.373 110.816 104.489 110.582 103.641C109.859 101.02 109.486 99.5546 109.463 99.2406C110.373 99.3369 111.183 99.6941 111.895 100.312C112.606 100.93 113.137 101.238 113.487 101.238C113.767 101.238 114.088 101.165 114.449 101.02C114.811 100.875 115.26 100.62 115.797 100.257C116.963 99.4095 118.176 98.5497 119.436 97.6721C120.696 96.8005 121.909 96.1466 123.076 95.7044C123.122 96.3398 123.146 96.7396 123.146 96.909C123.146 97.1512 122.971 97.3814 122.621 97.5995C122.271 97.8172 121.944 98.0236 121.641 98.2171ZM125.49 107.782C125.117 107.226 124.849 106.674 124.685 106.136C124.522 105.591 124.44 105.064 124.44 104.556C124.44 102.576 125.595 100.79 127.904 99.1975C129.911 97.793 132.023 96.9759 134.239 96.7336C134.426 96.7336 134.624 96.7219 134.833 96.6977C135.044 96.6735 135.196 96.661 135.289 96.661C137.995 96.661 139.64 98.4291 140.223 101.965C140.502 104.919 140.782 107.873 141.063 110.828C140.526 110.949 140.106 111.01 139.802 111.01C138.847 111.01 138.21 110.331 137.896 108.975C137.58 107.619 137.329 106.723 137.144 106.287C135.51 107.268 134.227 108.013 133.294 108.515C131.614 109.429 130.202 109.883 129.06 109.883C128.336 109.883 127.689 109.726 127.118 109.411C126.546 109.096 126.003 108.558 125.49 107.782ZM133.259 98.7315C131.999 98.877 130.798 99.3729 129.654 100.215C128.511 101.057 127.777 102.073 127.45 103.254C127.263 103.902 127.17 104.471 127.17 104.955C127.17 106.644 127.952 107.486 129.515 107.486C129.911 107.486 130.354 107.413 130.844 107.268C132.291 106.88 133.655 106.208 134.939 105.246C136.222 104.277 137.283 103.109 138.123 101.734C137.75 101.517 137.05 100.875 136.024 99.8151C135.301 99.0705 134.53 98.6956 133.714 98.6956C133.527 98.6956 133.376 98.7073 133.259 98.7315ZM152.226 96.7336C152.925 96.6852 153.45 96.6486 153.8 96.6244C154.15 96.6002 154.454 96.5885 154.71 96.5885C155.947 96.5885 156.857 96.8428 157.44 97.3508C158.186 98.005 158.56 99.143 158.56 100.766C158.35 103.212 157.137 105.283 154.921 106.977C153.124 108.358 150.931 109.314 148.342 109.847C146.895 110.138 145.903 110.828 145.367 111.917C144.971 112.716 144.772 113.928 144.772 115.55C144.772 116.01 144.801 116.797 144.859 117.911C144.918 119.025 144.947 119.618 144.947 119.691C144.947 120.878 144.83 121.81 144.591 122.488C144.282 123.36 143.751 124.014 142.993 124.45C142.899 123.917 142.824 123.281 142.777 122.542C142.73 121.804 142.707 121.108 142.707 120.454C142.707 119.607 142.754 118.287 142.848 116.495C142.941 114.703 142.987 113.31 142.987 112.317C142.987 111.736 142.894 111.07 142.707 110.319C142.521 109.569 142.427 108.987 142.427 108.576C142.427 108.454 142.45 108.2 142.498 107.813C142.684 106.771 142.789 106.142 142.812 105.924C142.929 105.149 142.987 104.434 142.987 103.781C142.987 102.545 143.093 101.517 143.302 100.693C143.512 99.8695 143.898 98.877 144.457 97.714C145.087 97.9566 145.671 98.0776 146.206 98.0776C146.837 98.0776 147.775 97.8539 149.023 97.4056C150.272 96.9581 151.339 96.7336 152.226 96.7336ZM156.11 101.746C156.203 101.335 156.25 100.923 156.25 100.512C156.25 99.7361 156.063 99.1858 155.69 98.8584C155.317 98.5319 154.78 98.3682 154.08 98.3682C153.171 98.3682 152.004 98.6464 150.581 99.2039C149.508 99.6155 148.435 100.136 147.361 100.766C146.499 101.25 145.88 101.916 145.507 102.764C145.133 103.611 144.947 104.567 144.947 105.633C144.947 106.19 144.994 106.795 145.087 107.449C145.18 108.104 145.297 108.733 145.437 109.338C148.26 108.661 150.429 107.885 151.946 107.014C154.325 105.657 155.714 103.902 156.11 101.746ZM159.435 96.7272C159.435 96.2914 159.435 95.8318 159.435 95.3477C159.435 94.8627 159.435 94.3544 159.435 93.8215C159.435 91.1819 159.668 89.269 160.134 88.0826C160.531 87.0652 161.126 86.4049 161.919 86.1143C162.176 87.3562 162.304 88.6998 162.304 90.1531C162.304 91.1218 162.123 93.3131 161.756 96.7272C161.587 98.3259 161.499 99.688 161.499 100.802C161.499 102.231 161.627 103.563 161.884 104.798C162.934 104.41 163.961 103.575 164.964 102.291C167.344 99.2647 168.906 97.5693 169.653 97.206C170.143 96.9876 170.563 96.8791 170.913 96.8791C171.613 96.8791 172.079 97.3508 172.313 98.2957C172.476 98.9254 172.558 99.9178 172.558 101.274C172.558 101.838 172.627 102.528 172.768 103.351C172.814 103.641 173.071 104.792 173.538 106.802C173.631 107.189 173.759 107.661 173.922 108.219C174.086 108.776 174.167 109.151 174.167 109.344C174.167 109.611 174.057 109.847 173.835 110.053C173.613 110.259 173.188 110.519 172.558 110.84C171.578 107.322 170.61 103.793 169.653 100.257C169.14 100.79 168.16 101.941 166.714 103.708C165.407 105.307 164.38 106.445 163.634 107.123C162.421 108.212 161.184 108.951 159.924 109.338C159.744 108.322 159.615 107.268 159.54 106.178C159.47 105.088 159.435 103.853 159.435 102.473C159.435 101.843 159.435 100.88 159.435 99.5973C159.435 98.3134 159.435 97.3572 159.435 96.7272ZM180.816 87.6521C181.365 87.7489 181.668 87.9976 181.715 88.3975C181.767 88.7966 181.814 89.0453 181.866 89.1421C181.656 89.2142 181.248 89.4202 180.642 89.7592C180.315 89.9535 180.07 90.0858 179.906 90.1591C179.837 89.5778 179.801 89.1904 179.801 88.9961C179.801 88.7788 179.866 88.5003 179.994 88.1613C180.123 87.8222 180.256 87.4832 180.397 87.1442L180.816 87.6521ZM180.397 99.7549C180.676 100.99 180.816 102.394 180.816 103.968C180.816 105.639 180.653 107.032 180.326 108.145C179.93 109.526 179.312 110.422 178.472 110.84C178.285 109.768 178.145 108.763 178.052 107.819C177.958 106.874 177.912 106.099 177.912 105.495C177.912 104.017 178.093 102.77 178.454 101.753C178.816 100.735 179.463 100.07 180.397 99.7549ZM197.404 96.7336H198.384L198.873 97.206V98.2231C196.284 98.8532 193.858 99.8695 191.595 101.274C189.892 102.316 188.661 103.266 187.903 104.126C187.145 104.985 186.766 105.779 186.766 106.506C186.766 106.965 186.923 107.407 187.238 107.831C187.553 108.255 188.025 108.57 188.655 108.776C189.285 108.981 189.985 109.084 190.755 109.084C191.525 109.084 192.452 108.994 193.537 108.812C194.621 108.63 195.596 108.467 196.459 108.322C199.025 107.644 201.592 106.953 204.158 106.25C204.391 106.25 204.577 106.263 204.718 106.287C204.041 107.958 202.373 109.145 199.714 109.847C198.757 110.114 196.529 110.44 193.029 110.828C192.33 110.9 191.583 110.937 190.79 110.937C188.994 110.937 187.582 110.683 186.555 110.174C185.273 109.544 184.631 108.515 184.631 107.086C184.631 106.893 184.631 106.723 184.631 106.578C184.631 106.432 184.677 106.172 184.771 105.809C185.307 103.412 186.917 101.28 189.6 99.4159C191.793 97.9143 194.231 96.8489 196.914 96.2128L197.404 96.7336Z" fill="#96C12B"/>
</svg>
