<svg width="160" height="180" viewBox="0 0 160 180" fill="none" xmlns="http://www.w3.org/2000/svg">
<path d="M124.824 0.386505C124.438 0.597443 122.68 2.21463 120.922 3.97244L117.688 7.13651L113.715 6.53885C108.055 5.73026 107.211 5.76541 106.016 6.96072C105.031 7.98026 104.785 8.82401 103.871 14.1326L103.484 16.5232H65.2345H26.9845L25.8946 17.4373C25.297 17.9295 24.6642 18.9138 24.4532 19.617C24.2423 20.4607 24.1017 36.8084 24.1017 67.4295V113.976L23.3634 114.152C21.7111 114.609 16.4025 117.422 14.3986 118.933C11.9025 120.832 8.17589 124.699 6.52355 127.09C5.01183 129.304 2.51574 134.683 1.84777 137.285C-0.929575 147.656 1.42589 158.871 8.07043 167.203C18.7228 180.492 37.4962 183.832 52.1212 175.008C56.8818 172.103 53.2905 168.177 48.8868 170.789C41.0118 175.57 30.254 175.922 21.8517 171.668C18.4415 169.98 16.5079 168.504 13.4845 165.269C5.08214 156.304 3.60558 142.91 9.79308 131.836C11.797 128.285 16.6837 123.398 20.2345 121.394C35.2462 112.992 53.3517 118.933 60.5587 134.578C61.965 137.601 63.1251 142.629 63.1251 145.722C63.1251 150.679 61.5782 156.621 59.3282 160.242C56.1117 165.526 61.4601 167.784 64.215 162.386L64.8829 161.015H97.1564C127.145 161.015 129.465 160.98 130.59 160.383C131.258 160.066 132.137 159.328 132.524 158.801C133.227 157.816 133.262 157.359 133.367 140.308C133.473 123.011 133.438 122.801 132.734 121.886C131.891 120.797 130.168 120.621 129.008 121.429C128.375 121.922 128.34 122.625 128.164 138.761L127.988 155.566L97.4728 155.672C68.504 155.742 66.9571 155.707 67.1329 155.144C67.7306 153.211 68.0821 150.961 68.2579 147.761L68.504 144.176L91.6017 144.07C113.785 143.965 114.77 143.929 115.473 143.297C116.422 142.418 116.492 140.273 115.578 139.465C114.981 138.937 112.66 138.867 91.2853 138.797L67.6251 138.691L66.8165 136.23C66.3946 134.859 65.9025 133.488 65.7618 133.136C65.5157 132.574 65.8321 132.539 69.2071 132.539C72.3712 132.539 73.004 132.433 73.8126 131.801C74.9728 130.886 75.0782 129.023 74.0236 127.969C73.3907 127.336 72.8634 127.265 67.9064 127.265H62.5275L61.6134 125.965C61.1564 125.226 59.9259 123.785 58.9064 122.765L57.0782 120.937H85.9415C114.348 120.937 114.805 120.937 115.508 120.234C116.563 119.179 116.457 117.316 115.297 116.402C114.348 115.664 114.207 115.664 81.8986 115.664H49.4142L47.2345 114.785C42.2423 112.851 37.004 112.008 32.1525 112.394L29.3751 112.605V67.1834V21.7966H62.2814H95.1525L94.4493 22.7107C93.2892 24.2224 93.5353 25.6287 95.715 30.0232C97.4728 33.5388 97.6837 34.2068 97.3673 35.0506L97.0509 36.0349L76.6954 36.2107L56.3751 36.3865L55.7071 37.2303C54.8282 38.2849 54.8634 39.4099 55.7775 40.5701L56.4806 41.4842H75.254H94.0275L93.8165 43.242C93.6759 44.5076 93.7814 45.2107 94.1681 45.8435C94.4845 46.3357 96.5939 47.6717 98.9845 48.9373C102.149 50.5896 103.274 51.3631 103.379 51.9256C103.484 52.3826 103.625 53.1209 103.731 53.6131L103.906 54.492H87.2072C70.965 54.492 70.4728 54.5271 69.8048 55.1951C68.7501 56.2498 68.8556 58.1131 70.0157 59.0271C70.9298 59.7654 71.2814 59.7654 87.9103 59.7654H104.891L105.102 60.6443C105.242 61.1365 105.84 61.8748 106.473 62.2615C107.422 62.824 107.949 62.8943 109.813 62.7185L111.992 62.5076V64.3006V66.0935H103.801C96.2775 66.0935 95.5392 66.1638 95.0118 66.7263C94.1681 67.6756 94.2384 69.7146 95.1525 70.5232C95.8204 71.1209 96.5939 71.1912 103.942 71.2967L111.992 71.4021V74.3904V77.3435H77.5743C43.297 77.3435 43.1915 77.3435 42.2423 78.0818C41.0821 78.9959 40.9767 80.8592 42.0314 81.9138C42.7345 82.617 43.1915 82.617 77.3634 82.617H111.992V86.1326C111.992 89.9295 112.379 91.2654 113.82 92.2498C114.524 92.7771 111.324 92.8123 78.6642 92.8123C43.1915 92.8123 42.7345 92.8123 42.0314 93.5154C41.1525 94.3943 41.1173 96.0115 41.9962 97.0662L42.6642 97.9099H78.6993C113.645 97.9099 114.77 97.8748 115.473 97.242C116.527 96.2927 116.492 94.1131 115.438 93.3748C114.664 92.8123 114.664 92.8123 115.93 92.8123C117.055 92.8123 117.828 92.3201 121.906 88.9451L126.547 85.0779L127.356 85.8513L128.164 86.5896V99.3865C128.164 111.691 128.199 112.183 128.867 112.851C129.922 113.906 131.785 113.801 132.699 112.64C133.402 111.726 133.438 111.304 133.438 101.39V91.0896L134.703 91.9334C136.567 93.199 138.149 93.0935 139.625 91.617L140.82 90.4217V76.4998V62.6131L143.422 62.6834C147.395 62.7888 147.746 62.3318 148.871 55.6521C149.258 53.4021 149.715 51.4334 149.856 51.2928C149.996 51.1521 151.789 50.1326 153.828 49.0076C160.297 45.5271 160.332 45.3865 157.344 38.9529L155.164 34.2771L157.379 29.7771L159.594 25.242L159.067 23.8006C158.609 22.4295 158.328 22.1834 154.531 20.1443C152.317 18.949 150.313 17.824 150.067 17.6834C149.82 17.5428 149.328 15.5037 148.906 13.1834C148.027 8.22635 147.711 7.24197 146.586 6.50369C145.567 5.83572 144.055 5.83572 139.766 6.50369C137.938 6.78494 136.18 7.03104 135.863 7.03104C135.547 7.03104 133.719 5.51932 131.75 3.65604C128.762 0.878693 127.918 0.24588 126.828 0.140411C126.125 0.0349426 125.211 0.175568 124.824 0.386505ZM128.34 7.76932C129.324 8.75369 130.871 10.1951 131.785 10.9334C133.754 12.5154 134.668 12.6209 139.942 11.8123C141.699 11.531 143.141 11.3553 143.176 11.3904C143.211 11.3904 143.563 13.324 143.984 15.6443C144.406 17.9646 144.969 20.2146 145.215 20.6013C145.496 21.0232 147.43 22.2888 149.504 23.3787C151.578 24.5037 153.336 25.4529 153.406 25.4881C153.442 25.5232 152.633 27.4568 151.543 29.742C150.488 32.0271 149.609 34.1716 149.609 34.4881C149.609 34.8045 150.488 36.8435 151.543 39.0232C152.633 41.2029 153.406 43.0662 153.301 43.2068C153.16 43.3123 151.473 44.2967 149.539 45.3513C147.57 46.406 145.672 47.6717 145.32 48.1638C144.934 48.6912 144.406 50.6248 143.984 53.0506C143.598 55.2303 143.246 57.1287 143.141 57.199C143.035 57.3045 141.067 57.1287 138.711 56.7771C135.371 56.3201 134.246 56.2498 133.508 56.5662C132.945 56.8123 131.258 58.2537 129.746 59.7654C128.199 61.3123 126.828 62.5779 126.652 62.5779C126.477 62.5779 124.93 61.2771 123.172 59.6599C121.449 58.0779 119.692 56.6365 119.27 56.4959C118.813 56.3201 116.703 56.4607 114.172 56.8123C111.817 57.1287 109.813 57.3396 109.777 57.2693C109.707 57.199 109.32 55.2654 108.899 52.9803C108.512 50.6951 107.949 48.4803 107.668 48.0584C107.387 47.6365 105.418 46.3709 103.274 45.2459L99.3712 43.2068L101.305 39.3045C102.324 37.1599 103.203 34.9451 103.203 34.3826C103.203 33.8552 102.324 31.6756 101.27 29.5662C99.8282 26.6834 99.4767 25.6287 99.7931 25.3826C100.039 25.2068 101.656 24.3279 103.414 23.4138C107.879 21.1287 108.02 20.9178 108.899 15.9607C109.285 13.6404 109.707 11.6717 109.848 11.5662C109.953 11.4256 111.5 11.531 113.223 11.8123C114.981 12.0584 117.16 12.3045 118.109 12.3045C119.797 12.3045 119.867 12.2693 123.031 9.14041C124.789 7.41776 126.301 5.97635 126.406 5.97635C126.512 5.97635 127.391 6.78494 128.34 7.76932ZM135.547 73.7224V85.9217L134.598 85.0076C134.035 84.5154 132.313 83.074 130.695 81.8084C126.512 78.4334 126.16 78.5037 120.43 83.2849L117.442 85.781L117.336 73.9685C117.301 67.4295 117.336 62.0506 117.442 61.9451C117.512 61.8396 119.199 63.2107 121.133 65.0037C124.578 68.2029 125.774 68.8709 127.426 68.6248C127.918 68.5545 129.781 67.0076 131.82 65.0037C133.789 63.1052 135.406 61.5232 135.477 61.5232C135.512 61.5232 135.547 67.0076 135.547 73.7224Z" fill="#073945"/>
<path d="M121.906 16.5234C113.715 18.668 108.16 25.7695 108.125 34.1016C108.125 39.7266 109.602 43.3477 113.574 47.2852C117.477 51.2227 121.133 52.7344 126.582 52.7344C131.574 52.7344 136.004 50.8711 139.59 47.2852C141.594 45.2812 143.633 41.9766 143.633 40.7461C143.633 39.6914 142.227 38.3203 141.172 38.3203C139.555 38.3203 139.063 38.6719 138.184 40.4297C137.023 42.7148 134.563 45.1055 132.102 46.3008C130.309 47.1797 129.711 47.2852 126.582 47.2852C123.523 47.2852 122.82 47.1797 121.063 46.3359C118.391 45.1055 116.211 42.9961 114.77 40.3594C113.609 38.25 113.574 37.9687 113.574 34.4531C113.574 31.1133 113.68 30.5508 114.559 28.7578C115.895 26.0508 118.32 23.6953 121.133 22.3594C123.137 21.4102 123.77 21.2695 126.406 21.3047C130.52 21.3398 132.945 22.2891 135.547 24.9258C136.602 26.0156 137.797 27.5273 138.184 28.3008C139.309 30.5508 139.766 30.9375 141.172 30.9375C142.508 30.9375 143.387 30.3047 143.773 29.0039C144.125 27.8437 142.156 24.2227 139.801 21.7266C137.27 19.0195 133.895 17.0859 130.379 16.3477C127.215 15.6797 125 15.7148 121.906 16.5234Z" fill="#073945"/>
<path d="M129.043 31.6406L125.562 35.1211L123.031 32.6953C120.887 30.5859 120.324 30.2344 119.27 30.2344C117.898 30.2344 116.562 31.5 116.562 32.8008C116.562 33.2578 118.039 35.0156 120.535 37.5117C123.77 40.7461 124.684 41.4844 125.527 41.4844C126.371 41.4844 127.391 40.6406 131.398 36.6328C135.512 32.5195 136.25 31.6406 136.25 30.7266C136.25 29.3555 134.984 28.125 133.578 28.125C132.734 28.125 131.891 28.7578 129.043 31.6406Z" fill="#073945"/>
<path d="M42.0313 55.1953C40.9766 56.25 41.0821 58.1133 42.2423 59.0273C43.1563 59.7305 43.5782 59.7656 53.6329 59.7656C63.6876 59.7656 64.1095 59.7305 65.0235 59.0273C66.1837 58.1133 66.2891 56.25 65.2345 55.1953C64.5665 54.5273 64.0743 54.4922 53.6329 54.4922C43.1915 54.4922 42.6993 54.5273 42.0313 55.1953Z" fill="#073945"/>
<path d="M42.0315 66.7969C40.5197 68.3086 41.5393 70.7695 43.8596 71.1914C44.4924 71.2969 55.0041 71.3672 67.2033 71.2969C88.4729 71.1914 89.4572 71.1563 90.1604 70.5235C91.1096 69.6445 91.1799 67.5 90.2658 66.6914C89.6682 66.1289 87.4885 66.0938 66.1838 66.0938C43.1916 66.0938 42.7346 66.0938 42.0315 66.7969Z" fill="#073945"/>
<path d="M42.8401 104.414C41.2932 105.047 40.8362 107.437 42.0315 108.633C42.7346 109.336 43.1916 109.336 64.4612 109.336C88.8244 109.336 87.7346 109.441 87.7346 106.91C87.7346 105.996 87.4885 105.363 86.9963 104.906C86.2932 104.273 85.344 104.238 64.9182 104.168C53.0705 104.133 43.2619 104.238 42.8401 104.414Z" fill="#073945"/>
<path d="M92.6562 104.309C91.4609 104.766 90.8984 105.609 90.8984 106.91C90.8984 109.336 90.9688 109.336 103.555 109.336C116.141 109.336 116.211 109.336 116.211 106.91C116.211 105.996 115.965 105.363 115.473 104.906C114.77 104.273 113.996 104.238 103.941 104.168C98.0352 104.133 92.9375 104.203 92.6562 104.309Z" fill="#073945"/>
<path d="M78.5938 127.969C77.5391 129.023 77.6446 130.887 78.8048 131.801C79.7188 132.539 80.0704 132.539 97.0509 132.539C114.031 132.539 114.383 132.539 115.297 131.801C116.457 130.887 116.563 129.023 115.508 127.969C114.84 127.301 114.348 127.266 97.0509 127.266C79.754 127.266 79.2618 127.301 78.5938 127.969Z" fill="#073945"/>
<path d="M19.1797 137.109C18.5469 137.742 18.4766 138.27 18.4766 141.855C18.4766 146.461 18.8633 147.305 21.043 147.305C23.1875 147.305 23.5742 146.426 23.5742 141.785C23.5742 137.953 23.5391 137.707 22.7305 137.074C21.6758 136.195 20.0586 136.23 19.1797 137.109Z" fill="#073945"/>
<path d="M46.25 137.109C45.6172 137.742 45.5469 138.27 45.5469 141.855C45.5469 146.461 45.9336 147.305 48.1133 147.305C50.2578 147.305 50.6445 146.426 50.6445 141.785C50.6445 137.953 50.6094 137.707 49.8008 137.074C48.7461 136.195 47.1289 136.23 46.25 137.109Z" fill="#073945"/>
<path d="M25.7188 149.449C24.9805 150.012 24.8047 150.469 24.8047 151.664C24.8047 156.832 29.1641 161.086 34.4023 161.086C39.7461 161.086 44.1406 156.973 44.1406 151.98C44.1406 150.434 44 150.047 43.2266 149.449C42.0664 148.535 41.3281 148.535 40.168 149.414C39.5352 149.906 39.1836 150.609 39.0078 151.734C38.5156 155.215 35.2812 156.797 32.1172 155.18C31.0625 154.652 30.0781 153.035 30.0781 151.91C30.0781 150.75 29.3398 149.52 28.4258 149.098C27.2305 148.535 26.7734 148.605 25.7188 149.449Z" fill="#073945"/>
<path d="M46.5 172C51.5 170 57.5 163.5 59.5 160C60 159.255 60.5 161 63.5 163.5C59.5 170.3 55 174 48 177C47.5 177 48.1 176 46.5 172Z" fill="#073945"/>
<path d="M128.4 126L128.2 107L133.4 108.5V126H128.4Z" fill="#073945"/>
<path d="M137.9 41C139.9 37.5 139.5 31.5 138.6 29C138.933 28.6667 140.2 27.7 143 26.5C145.5 30 144.5 41 142.5 43.5C142.333 43.5 141.1 43 137.9 41Z" fill="#073945"/>
</svg>
