<svg width="66" height="90" viewBox="0 0 66 90" fill="none" xmlns="http://www.w3.org/2000/svg">
<path d="M47.6412 67.2515V81.1378L54.2944 83.9069V63.6125C52.2045 65.0458 49.9755 66.2649 47.6412 67.2515ZM11.7056 63.6125V83.7684L18.3588 80.9993V67.2515C16.0245 66.265 13.7955 65.0458 11.7056 63.6125ZM32.9999 70.2057C29.8583 70.2074 26.7287 69.8164 23.6841 69.0418V90L32.9999 86.1228L42.3158 89.9998V69.0418C39.2711 69.8163 36.1416 70.2073 32.9999 70.2057ZM32.9999 0C15.1124 0 0.559898 14.5526 0.559898 32.4402C0.559898 50.3278 15.1124 64.8802 32.9999 64.8802C50.8874 64.8802 65.4401 50.3277 65.4401 32.44C65.4401 14.5524 50.8876 0 32.9999 0ZM32.9999 58.0253C18.8191 58.0253 7.28211 46.4883 7.28211 32.3075C7.28211 18.1265 18.8191 6.5895 32.9999 6.5895C47.1807 6.5895 58.7177 18.1265 58.7177 32.3075C58.7177 46.4884 47.1809 58.0253 32.9999 58.0253ZM32.9999 11.9148C21.7556 11.9148 12.6074 21.0628 12.6074 32.3075C12.6074 43.5522 21.7556 52.6998 32.9999 52.6998C44.2443 52.6998 53.3924 43.5518 53.3924 32.3073C53.3924 21.0628 44.2444 11.9148 32.9999 11.9148ZM41.3813 44.2089L32.9999 39.8026L24.6187 44.2089L26.2193 34.8763L19.4388 28.267L28.8095 26.9052L32.9999 18.4139L37.1905 26.9052L46.5612 28.267L39.7807 34.8763L41.3813 44.2089Z" fill="#0D8391"/>
</svg>
