<svg width="32" height="32" viewBox="0 0 32 32" fill="none" xmlns="http://www.w3.org/2000/svg">
<g clip-path="url(#clip0_489_1250)">
<path fill-rule="evenodd" clip-rule="evenodd" d="M9.70804 2.29183C9.61515 2.19871 9.5048 2.12482 9.38331 2.07441C9.26182 2.024 9.13158 1.99805 9.00004 1.99805C8.86851 1.99805 8.73827 2.024 8.61678 2.07441C8.49529 2.12482 8.38494 2.19871 8.29204 2.29183L0.292043 10.2918C0.104269 10.4796 -0.0012207 10.7343 -0.0012207 10.9998C-0.0012207 11.2654 0.104269 11.5201 0.292043 11.7078C0.479816 11.8956 0.734491 12.0011 1.00004 12.0011C1.26559 12.0011 1.52027 11.8956 1.70804 11.7078L8.00004 5.41383L8.00004 24.9998C8.00004 26.3259 8.52683 27.5977 9.46451 28.5354C10.4022 29.473 11.674 29.9998 13 29.9998L29 29.9998C29.2653 29.9998 29.5196 29.8945 29.7072 29.7069C29.8947 29.5194 30 29.265 30 28.9998C30 28.7346 29.8947 28.4803 29.7072 28.2927C29.5196 28.1052 29.2653 27.9998 29 27.9998L13 27.9998C12.2044 27.9998 11.4413 27.6838 10.8787 27.1212C10.3161 26.5585 10 25.7955 10 24.9998L10 5.41383L16.292 11.7078C16.385 11.8008 16.4954 11.8746 16.6169 11.9249C16.7384 11.9752 16.8686 12.0011 17 12.0011C17.1315 12.0011 17.2617 11.9752 17.3832 11.9249C17.5047 11.8746 17.6151 11.8008 17.708 11.7078C17.801 11.6149 17.8748 11.5045 17.9251 11.383C17.9754 11.2615 18.0013 11.1313 18.0013 10.9998C18.0013 10.8683 17.9754 10.7381 17.9251 10.6167C17.8748 10.4952 17.801 10.3848 17.708 10.2918L9.70804 2.29183Z" fill="#C3F922"/>
</g>
<defs>
<clipPath id="clip0_489_1250">
<rect width="32" height="32" fill="white"/>
</clipPath>
</defs>
</svg>
