<svg width="101" height="101" viewBox="0 0 101 101" fill="none" xmlns="http://www.w3.org/2000/svg">
<path d="M65.2658 2.01753C61.5324 3.13898 58.4124 4.09631 58.3324 4.17837C58.2791 4.23307 59.0791 5.16306 60.1724 6.25715L62.1191 8.19917L59.3724 10.8797C55.5858 14.5449 50.1191 19.4137 47.4524 21.4924C40.9724 26.5253 28.4924 33.0899 17.1058 37.4662C15.5324 38.068 15.1324 38.3415 14.8658 39.0253C14.5724 39.7365 14.5991 39.9553 15.0524 40.5844C15.8524 41.7059 16.7858 41.6238 20.4391 40.2288C26.8124 37.7945 32.2524 35.2507 38.1191 31.9411C47.5591 26.6073 52.4924 22.8327 61.3458 14.162L64.7591 10.7976L66.8124 12.7397L68.8658 14.6817L70.5191 7.76153C71.4258 3.95955 72.1458 0.649911 72.1191 0.403739C72.0658 0.048158 70.9191 0.321682 65.2658 2.01753Z" fill="#073945"/>
<path d="M82.8391 31.5583C82.0124 32.1054 81.4258 32.7619 81.0258 33.5824L80.4658 34.7859V65.6121V96.4382H77.3991H74.3324L74.2791 71.6023L74.1991 46.7389L73.3991 45.426C71.9858 43.0737 71.5324 42.9643 63.9324 42.9643C57.5324 42.9643 57.3724 42.9643 56.3858 43.6208C55.8258 43.9763 55.0524 44.7696 54.6524 45.3713L53.9324 46.4928L53.8524 71.4655L53.7991 96.4382H50.7324H47.6658V78.1942C47.6658 60.1143 47.6658 59.9501 47.1058 58.7466C46.7058 57.9534 46.1191 57.2696 45.3191 56.7499L44.0924 55.9567H37.6124C32.1458 55.9567 30.9724 56.0387 30.2524 56.3943C29.0524 57.0234 28.4924 57.5978 27.9058 58.7466C27.4258 59.704 27.3991 60.634 27.3991 78.1121V96.4382H24.3591H21.2924L21.2124 85.0049L21.1324 73.599L20.4124 72.3134C20.0124 71.6296 19.2124 70.7543 18.6791 70.3988C17.6924 69.797 17.4258 69.7697 11.4258 69.6876C6.14576 69.6055 4.99909 69.6602 4.03909 70.0432C2.65242 70.5902 1.39909 71.9852 1.02576 73.3802C0.839089 74.0366 0.732422 78.9874 0.732422 86.7555V99.0914L1.34576 99.6658L1.95909 100.268H50.7591H99.5858L100.146 99.6385L100.732 99.0094V66.8977V34.7859L100.172 33.5824C99.8258 32.8713 99.1591 32.1054 98.5191 31.6678L97.4524 30.9292L90.7591 30.8472L84.0658 30.7651L82.8391 31.5583ZM96.6791 34.9501C96.9191 35.1962 96.9991 42.4446 96.9991 65.8583V96.4382H90.5991H84.1991V65.8583C84.1991 42.4446 84.2791 35.1962 84.5191 34.9501C84.9724 34.4851 96.2258 34.4851 96.6791 34.9501ZM70.0658 47.2039C70.5991 47.751 70.5991 48.1066 70.5991 72.0946V96.4382H64.0658H57.5324V72.0946C57.5324 48.1066 57.5324 47.751 58.0658 47.2039C58.5724 46.6842 58.9458 46.6569 64.0658 46.6569C69.1858 46.6569 69.5591 46.6842 70.0658 47.2039ZM43.6658 60.3057C43.8258 60.6613 43.9324 66.8977 43.9324 78.6318V96.4382H37.5324H31.1324V78.4404C31.1324 64.8189 31.2124 60.3604 31.4524 60.1143C31.6924 59.8681 33.4258 59.786 37.5858 59.786C43.0524 59.786 43.3991 59.8134 43.6658 60.3057ZM16.8924 73.8452C17.3724 74.2281 17.3991 74.7204 17.4791 85.3332L17.5591 96.4382H10.9991H4.46576V85.4426C4.46576 75.6231 4.51909 74.4196 4.91909 73.9546C5.31909 73.5169 5.85242 73.4622 10.8658 73.4622C15.1858 73.4622 16.4658 73.5443 16.8924 73.8452Z" fill="#073945"/>
</svg>
