<svg width="37" height="37" viewBox="0 0 37 37" fill="none" xmlns="http://www.w3.org/2000/svg">
<g clip-path="url(#clip0_288_1283)">
<path d="M27.4232 8.89773L23.8959 13.1042H14.5981L11.0908 8.88617C10.8966 8.62176 10.7918 8.30232 10.7917 7.97427V0H27.75V7.94806C27.7501 8.29223 27.6351 8.62653 27.4232 8.89773Z" stroke="#203201"/>
<path d="M23.125 0H15.4167V13.1042H23.125V0Z" stroke="#203201"/>
<path d="M23.9436 16.1875H14.6458C14.0325 16.1875 13.4443 15.9438 13.0107 15.5102C12.577 15.0765 12.3333 14.4883 12.3333 13.875C12.3333 13.2617 12.577 12.6735 13.0107 12.2398C13.4443 11.8061 14.0325 11.5625 14.6458 11.5625H23.8958C24.202 11.5535 24.5067 11.6072 24.7913 11.7203C25.0759 11.8333 25.3344 12.0033 25.551 12.2199C25.7675 12.4364 25.9375 12.6949 26.0506 12.9795C26.1636 13.2642 26.2173 13.5689 26.2083 13.875C26.2208 14.178 26.1711 14.4803 26.0624 14.7633C25.9536 15.0464 25.788 15.3041 25.5759 15.5208C25.3637 15.7374 25.1094 15.9083 24.8287 16.023C24.548 16.1377 24.2468 16.1936 23.9436 16.1875ZM14.652 13.1042C14.4476 13.1042 14.2515 13.1854 14.1069 13.3299C13.9624 13.4745 13.8812 13.6705 13.8812 13.875C13.8812 14.0794 13.9624 14.2755 14.1069 14.42C14.2515 14.5646 14.4476 14.6458 14.652 14.6458H23.9406C24.0417 14.6532 24.1433 14.638 24.2378 14.6012C24.3324 14.5645 24.4175 14.5071 24.4871 14.4332C24.5566 14.3594 24.6089 14.271 24.6399 14.1744C24.671 14.0778 24.6801 13.9755 24.6667 13.875C24.6765 13.7705 24.663 13.6651 24.6272 13.5665C24.5913 13.4679 24.534 13.3785 24.4593 13.3047C24.3847 13.2309 24.2946 13.1747 24.1955 13.14C24.0965 13.1053 23.991 13.0931 23.8866 13.1042H14.652Z" stroke="#203201"/>
<path d="M19.6563 14.646C19.526 14.646 19.3996 14.6614 19.2708 14.6653C19.1421 14.6691 19.0157 14.646 18.8854 14.646C15.9211 14.646 13.0781 15.8236 10.982 17.9197C8.88593 20.0158 7.70834 22.8587 7.70834 25.8231C7.70834 28.7874 8.88593 31.6304 10.982 33.7265C13.0781 35.8226 15.9211 37.0002 18.8854 37.0002C19.0157 37.0002 19.1421 36.9847 19.2708 36.9809C19.3996 36.977 19.526 37.0002 19.6563 37.0002C22.6206 37.0002 25.4635 35.8226 27.5597 33.7265C29.6558 31.6304 30.8333 28.7874 30.8333 25.8231C30.8333 22.8587 29.6558 20.0158 27.5597 17.9197C25.4635 15.8236 22.6206 14.646 19.6563 14.646Z" stroke="#203201"/>
<path d="M18.8854 35.4583C24.2069 35.4583 28.5208 31.1444 28.5208 25.8229C28.5208 20.5014 24.2069 16.1875 18.8854 16.1875C13.5639 16.1875 9.25 20.5014 9.25 25.8229C9.25 31.1444 13.5639 35.4583 18.8854 35.4583Z" stroke="#203201"/>
<path d="M18.8854 33.9165C23.3555 33.9165 26.9792 30.2928 26.9792 25.8228C26.9792 21.3527 23.3555 17.729 18.8854 17.729C14.4154 17.729 10.7917 21.3527 10.7917 25.8228C10.7917 30.2928 14.4154 33.9165 18.8854 33.9165Z" stroke="#203201"/>
<path d="M19.2709 31.604C19.0664 31.604 18.8703 31.5228 18.7258 31.3782C18.5812 31.2337 18.5 31.0376 18.5 30.8332V22.6939L16.7364 24.4846C16.6671 24.5633 16.5826 24.627 16.4878 24.6719C16.3931 24.7168 16.2903 24.7419 16.1855 24.7457C16.0808 24.7495 15.9763 24.7319 15.8786 24.694C15.7809 24.656 15.692 24.5985 15.6172 24.5251C15.5425 24.4516 15.4835 24.3636 15.4439 24.2666C15.4043 24.1695 15.3849 24.0654 15.387 23.9606C15.389 23.8558 15.4123 23.7525 15.4556 23.6571C15.4989 23.5616 15.5612 23.476 15.6387 23.4054L18.722 20.2735C18.8292 20.1648 18.9663 20.0904 19.1159 20.0597C19.2655 20.029 19.4209 20.0434 19.5622 20.1011C19.7036 20.1589 19.8247 20.2573 19.91 20.3839C19.9954 20.5105 20.0412 20.6596 20.0417 20.8123V30.8332C20.0417 31.0376 19.9605 31.2337 19.8159 31.3782C19.6714 31.5228 19.4753 31.604 19.2709 31.604Z" stroke="#203201"/>
</g>
<defs>
<clipPath id="clip0_288_1283">
<rect width="37" height="37" fill="white"/>
</clipPath>
</defs>
</svg>
