<svg width="683" height="683" viewBox="0 0 683 683" fill="none" xmlns="http://www.w3.org/2000/svg">
<path d="M295.467 18.6668C293.333 28.9335 290.933 38.1335 290.133 39.2001C289.333 40.1335 285.333 42.0001 281.333 43.2001C277.333 44.5335 268.533 48.1335 261.733 51.3335L249.467 57.0668L232.4 45.8668L215.333 34.8001L186.133 63.8668L156.933 93.0668L162.4 106C165.467 113.067 168 119.333 168 119.867C168 120.533 163.6 121.333 158.267 121.733C136.8 123.6 117.467 134.133 104.4 151.333C90.9333 168.933 87.4667 182.667 88.4 214C88.8 227.867 89.7333 237.467 91.0667 241.467C95.3333 254.4 101.733 264.667 111.467 274.533C116.933 279.867 121.333 285.333 121.333 286.533C121.333 288.267 118 289.6 106.133 292.533L90.8 296.267L63.2 280.133L35.7333 264H17.8667H0L0.266667 378.267L0.666667 492.4L54 510.267L107.333 528L118.667 527.733C129.467 527.333 129.867 527.2 130.667 524C131.067 522.133 132 520.667 132.8 520.667C133.467 520.667 140.933 524.8 149.467 529.733C164.667 538.933 164.8 538.933 166.267 545.467C169.467 558.667 181.067 570 193.2 571.6C198 572.267 198.4 572.667 199.067 577.6C200.667 589.6 212 601.2 225.067 604.267C231.2 605.733 232 606.4 232 609.333C232 611.333 233.6 616 235.6 619.867C239.733 628.133 247.467 634.267 257.6 637.333C264.133 639.333 264.4 639.6 266 645.733C268.267 654.933 274.133 662.4 282.533 667.2C291.733 672.267 304.133 672.8 312.667 668.4L318 665.6L324 670.933C332.267 678.267 339.067 681.467 348 682.267C365.333 683.867 380.4 673.067 384.4 656C385.867 649.733 386.133 649.467 391.467 648.667C403.467 646.933 414.8 635.333 417.6 621.867C418.667 616.667 419.333 616 422.4 616C434.667 615.867 450.533 600 450.667 587.733C450.667 584.8 451.467 583.867 454.4 583.2C462.667 581.467 469.333 578.267 473.867 573.867C480.267 567.733 482.8 562.533 483.6 553.733L484.4 546.533L583.467 496.933L682.667 447.333V367.067V286.667H669.867H657.067L639.2 296.133L621.2 305.6L614.933 302.933C611.467 301.467 598 297.733 585.067 294.533C566.133 289.867 561.333 288.267 561.333 286.533C561.333 285.333 565.733 279.867 571.2 274.533C581.067 264.667 587.333 254.267 591.6 241.467C592.8 237.6 593.867 227.867 594.267 215.333C595.067 190.933 593.2 180.267 585.2 164.133C572.8 138.933 545.6 121.333 519.2 121.333H513.467L519.6 107.2L525.733 93.0668L496.533 64.0001L467.333 34.8001L450.267 45.8668L433.2 57.0668L420.933 51.3335C414.133 48.1335 405.333 44.5335 401.333 43.2001C397.333 42.0001 393.333 40.1335 392.533 39.2001C391.733 38.1335 389.333 28.9335 387.2 18.6668L383.467 0.000127169H341.333H299.2L295.467 18.6668ZM369.333 40.4001C371.333 49.7335 373.2 57.6001 373.467 57.7335C373.733 58.0001 380 59.8668 387.333 62.0001C394.667 64.1335 408.133 69.6001 417.2 74.2668C436 83.7335 432.8 84.0001 450.933 71.7335C457.333 67.4668 463.333 64.0001 464.267 64.0001C466.667 64.0001 498.667 96.2668 498.667 98.6668C498.533 99.7335 496 106.667 492.8 114C487.6 126.267 486.667 127.6 481.2 130.533C478 132.267 472.4 136.133 468.8 139.067C463.2 143.733 462.133 144.133 461.067 142.267C457.733 136.133 442.8 119.067 435.067 112.667C413.867 94.6668 391.2 83.8668 364.8 79.3335C314.933 70.8001 262.533 90.5335 230.933 130C226.4 135.467 222.267 141.067 221.6 142.267C220.4 144.267 219.733 144.133 215.333 140.533C212.667 138.4 207.067 134.533 202.933 131.867C195.867 127.467 195.067 126.4 189.733 114C186.533 106.8 184 100 184 98.8001C184 96.2668 215.867 64.0001 218.4 64.0001C219.333 64.0001 225.333 67.4668 231.733 71.7335C249.867 84.0001 246.667 83.7335 265.467 74.2668C274.533 69.6001 288 64.1335 295.333 62.0001C302.667 59.8668 308.933 58.0001 309.2 57.8668C309.467 57.6001 311.067 50.6668 312.933 42.4001C314.667 34.1335 316.4 26.2668 316.8 24.9335C317.467 22.8001 319.6 22.6668 341.6 22.9335L365.733 23.3335L369.333 40.4001ZM364 101.6C396.533 107.733 425.467 127.733 444.533 157.2L448.267 162.933L444.4 174.533C440.933 185.333 440.667 187.333 440.667 208.667C440.8 234.667 442.4 243.067 450.267 257.333C452.933 262.133 459.2 270 464.267 275.067C469.2 280 473.333 285.067 473.333 286.4C473.333 288.267 469.467 289.733 451.333 294.133L429.333 299.6L407.333 294.133C389.067 289.6 385.333 288.267 385.333 286.267C385.333 284.933 389.067 280.4 393.733 276.133C403.467 266.933 410.933 255.067 415.067 242C417.6 233.867 418 229.733 418 210C418 191.867 417.467 185.733 415.6 179.333C406.933 151.067 384.8 129.6 357.867 123.2C345.867 120.4 327.867 121.333 316.4 125.333C293.867 133.2 275.333 152.133 267.867 174.933C264.933 183.733 264.667 186.933 264.667 208.667C264.667 229.733 265.067 233.733 267.6 242C271.733 255.067 279.2 266.933 289.067 276.133C293.6 280.4 297.333 284.933 297.333 286.267C297.333 288.267 293.6 289.6 275.333 294.133L253.333 299.6L231.333 294.133C213.867 289.867 209.333 288.267 209.333 286.533C209.333 285.333 213.467 280.133 218.4 275.2C223.467 270.133 229.733 262.133 232.4 257.333C240.267 243.2 242 234.667 241.867 209.333C241.867 188.533 241.6 186.667 237.867 175.867L234 164.4L238 157.733C264 114.8 314.533 92.2668 364 101.6ZM183.733 146.933C197.2 152 210.4 165.2 216.133 179.6C219.067 186.667 219.333 189.333 219.333 210.667V234L214.8 243.2C209.867 253.467 201.067 263.067 192.267 268L186.533 271.2L186.933 288.533L187.333 305.867L205.333 310.4C215.2 312.8 223.467 315.067 223.733 315.333C224 315.6 222.8 317.867 220.933 320.267C213.733 329.867 209.733 341.867 208.933 356L208.667 361.867L192.667 365.6C183.867 367.6 176.4 369.2 176 369.333C175.6 369.333 175.467 364.133 175.733 357.6L176.133 346L147.6 329.333C131.733 320.133 119.6 312.267 120.4 311.867C121.333 311.333 126.667 309.867 132.4 308.533L142.667 306.133V288.533V270.933L136.133 266.667C127.067 260.933 120.533 253.333 115.467 242.8C111.467 234.133 111.333 233.467 110.933 211.733C110.533 193.333 110.8 188.133 112.8 182.4C116.133 172 120.667 164.8 128.4 157.867C143.867 143.867 164.4 139.867 183.733 146.933ZM358 146.267C376 152.533 390.4 168.933 394.667 188C395.6 192.533 396.133 202.533 395.733 214.667C395.333 232.533 395.067 234.667 391.6 241.867C386.8 252.4 380 260.4 371.2 266.267L364 271.067V288.533V306L395.733 313.867C429.333 322.267 437.6 325.333 443.2 332.133C450.4 340.667 451.067 344 451.2 370.667L451.333 395.333L446.4 395.733C443.2 396 428.933 392.667 406.4 386.267C387.067 380.8 368.267 375.867 364.667 375.333C360.933 374.8 345.733 370.667 330.667 366C297.2 355.6 295.333 355.067 281.733 353.467C271.467 352.133 254.933 352.933 236.933 355.467L230.533 356.4L231.467 350.533C233.467 338.133 239.2 329.733 249.2 324.8C252.533 323.067 269.6 318.133 287.067 313.867L318.667 306V288.533V270.933L312.133 266.667C303.067 260.933 296.533 253.333 291.467 242.8L287.333 234V209.2V184.533L292.4 174.4C304.667 149.467 332.667 137.467 358 146.267ZM534 146.267C547.867 150.667 558.933 160.8 566.4 175.733L571.333 185.867V209.867V234L567.2 242.8C562.133 253.333 555.6 260.933 546.533 266.667L540 270.933V288.533V306.133L566.667 312.667C586.933 317.6 592.933 319.6 591.6 320.8C589.867 322.4 475.333 382.667 474.133 382.667C473.733 382.667 473.333 374.667 473.333 364.933C473.333 342.133 470.667 332.267 461.733 320.267C459.867 317.867 458.667 315.6 458.933 315.333C459.2 315.067 467.467 312.8 477.333 310.4L495.333 305.867L495.733 288.533L496.133 271.2L490.4 268C481.6 263.067 472.8 253.467 467.867 243.2C463.6 234.267 463.467 233.467 462.933 214C462.133 184.4 465.6 172.667 479.467 159.2C494.533 144.533 513.733 140 534 146.267ZM69.7333 309.467C91.0667 322 108.8 332.267 108.933 332.4C109.333 332.8 69.7333 490.667 69.0667 491.333C68.8 491.733 58.1333 488.533 45.6 484.267L22.6667 476.667V381.733V286.667H26.6667C29.4667 286.667 42.5333 293.6 69.7333 309.467ZM660 372.4V434L567.6 480.133L475.2 526.4L426.667 482.533C370.8 432.133 367.6 430 350.667 430C338.267 430 335.2 431.2 310.8 446C284.133 462 282.133 462.933 276.667 461.867C267.067 460.133 261.733 449.333 265.867 439.6C267.733 435.067 270.133 433.6 303.6 416.933C340.933 398.267 350 394.933 360.4 396.667C363.467 397.2 382.667 402.4 403.067 408.133C428.267 415.333 442.267 418.667 447.067 418.667C453.6 418.667 459.6 415.6 556 364.8C612.133 335.067 658.4 310.8 659.067 310.8C659.6 310.667 660 338.4 660 372.4ZM153.733 358.667C154.533 359.333 114.267 504.533 112.8 506.267C112.133 507.067 90.6667 499.333 90.6667 498.4C90.6667 497.2 127.733 348.533 128.667 345.733C129.067 344.667 133.2 346.4 140.933 350.933C147.333 354.667 153.2 358.133 153.733 358.667ZM284.667 376C293.867 377.467 316 384 316 385.2C316 385.733 303.333 392.4 287.733 400C247.733 419.733 243.333 424.267 243.333 446C243.333 460.133 245.467 465.6 254.267 474.267C260.933 480.667 269.6 484 279.867 484C288.933 484 294 481.733 319.333 466.533C329.6 460.267 339.733 454.533 341.733 453.6C346.533 451.467 354.8 451.6 359.6 453.6C365.2 456.133 457.6 539.333 460.4 544.4C464.8 552.533 459.2 561.333 449.467 561.333C444.8 561.333 441.6 559.067 413.2 535.333C396 521.067 381.733 509.467 381.333 509.467C380.533 509.467 368 524.8 368 525.733C368 526.133 380.8 537.067 396.4 550C424.933 573.733 429.333 578.133 429.333 583.733C429.333 588.533 422.4 594.667 417.067 594.667C411.467 594.667 411.733 594.8 377.333 566.267L348.667 542.4L341.733 550.133C337.867 554.533 334.667 558.267 334.667 558.667C334.667 559.067 347.6 570.133 363.467 583.333C379.333 596.533 393.067 608.533 394.133 610C397.067 614.267 396.4 620.4 392.533 624.133C387.867 628.533 380.267 628.267 373.733 623.2C363.733 615.733 346.667 601.067 346.667 599.867C346.667 599.333 344.133 596.4 341.067 593.467C335.867 588.4 326.533 584 321.067 584C319.333 584 318.667 582.933 318.667 580.267C318.667 578.267 317.067 573.333 315.067 569.467C310.933 561.2 303.2 555.067 293.067 552C286.533 550 286.267 549.733 284.667 543.733C283.867 540.267 281.467 535.067 279.6 532.133C275.733 526.4 264 518.667 259.067 518.667C255.067 518.667 252.533 515.733 251.467 509.733C249.2 496.533 233.733 484.8 218.667 484.933C206.8 485.067 200.133 488.8 184.933 504L171.733 517.2L155.733 507.733C147.067 502.533 139.6 497.733 139.2 497.2C138.667 496.267 167.067 395.2 168.267 394C168.8 393.467 242.933 376.933 250.667 375.6C257.2 374.533 276.8 374.667 284.667 376ZM224.4 508.267C228.933 510.667 230.533 513.6 230.667 519.2C230.667 523.867 229.6 525.333 219.733 535.6C213.6 541.867 206.933 547.733 204.933 548.933C197.067 552.933 187.733 547.067 187.733 537.867C187.733 533.333 188.933 531.733 200.933 519.733C214.8 506.133 217.733 504.667 224.4 508.267ZM259.733 542.667C263.067 545.867 264.667 550.667 263.467 554.933C263.067 556.667 257.067 563.6 250.267 570.4C238.933 581.733 237.2 582.933 232.8 582.933C224.267 582.933 218.667 575.333 221.333 567.333C222.267 564.667 227.6 558.267 234.667 551.467C245.467 541.067 247.067 540 251.733 540C255.067 540 257.867 540.933 259.733 542.667ZM294 577.6C300.133 584.933 298.267 589.467 282.267 604.933C271.867 615.067 270.533 616 265.6 616C261.2 616 259.6 615.2 256.8 611.867C250.667 604.667 251.867 601.2 265.067 587.6C280.933 571.2 286.933 569.2 294 577.6ZM326.267 609.6C333.2 616.133 331.467 622.133 318.267 635.6C304.133 650.267 298.533 652.4 290.8 645.867C287.467 643.067 286.667 641.467 286.667 637.2C286.667 632.4 287.733 630.933 297.333 620.8C312.533 605.067 318.8 602.667 326.267 609.6ZM360.267 642C361.6 643.467 362.667 646.667 362.667 649.2C362.667 660.133 350.8 663.6 340.267 655.867C337.2 653.6 334.667 651.333 334.667 650.8C334.667 650.267 336.4 648.133 338.667 646C340.8 643.867 344.267 639.867 346.133 637.067L349.733 631.867L353.867 635.6C356.133 637.6 359.067 640.533 360.267 642Z" fill="#073945"/>
</svg>
