<svg width="98" height="98" viewBox="0 0 98 98" fill="none" xmlns="http://www.w3.org/2000/svg">
<path d="M48.7129 0.172254C48.2535 0.593348 44.234 2.77538 42.2625 3.65585C39.5445 4.89999 35.1996 6.33554 32.3477 6.96718C28.1559 7.88593 26.1844 8.05819 18.4324 8.17304L11.1016 8.28788V18.643V29.0172L9.93398 29.5914C7.61797 30.6824 5.81875 33.0941 5.32109 35.7547C5.12969 36.8074 5.01484 36.9988 4.51719 37.2668C3.44531 37.8219 2.62227 38.5492 1.78008 39.6785C0.669922 41.2098 0.191406 42.8176 0.191406 45.0762C0.191406 51.9859 3.90469 58.532 9.7043 61.8816L11.0824 62.6855L11.1016 65.3269C11.1016 67.7961 11.0633 68.0258 10.6422 68.7723C9.58945 70.5715 9.57031 70.7437 9.57031 84.927V98H19.8105H30.0508V93.3105V88.6211H31.6777H33.3047V93.3105V98H49H64.6953L64.7336 91.0902L64.791 84.1805L66.1309 83.6254C66.8773 83.3383 67.5855 83.0895 67.7195 83.0895C67.8918 83.0703 67.9492 84.6781 67.9492 90.5352V98H78.9551H89.9609L89.9226 83.7594L89.8652 69.4996L90.5351 69.3848C90.8988 69.3082 91.8176 68.9637 92.5449 68.6191C94.8801 67.509 96.8707 65.0781 97.5406 62.5133C97.8469 61.3648 97.8851 59.2019 97.598 57.9961C97.0812 55.7758 95.1672 53.1344 93.2723 52.0625C92.5066 51.6414 92.5066 51.6414 92.6789 50.8375C93.2531 48.4066 93.1766 44.5977 92.5066 42.2242C91.6836 39.2191 89.9801 36.2523 87.9703 34.2617L86.8984 33.2281V20.7293V8.23046H81.4051C71.5668 8.23046 66.9922 7.6371 60.7715 5.60819C57.1922 4.44061 52.7707 2.37343 49.7465 0.459364C48.9043 -0.0574333 48.9426 -0.0574333 48.7129 0.172254ZM50.7035 4.6703C55.4887 7.31171 61.25 9.3789 66.8008 10.4316C69.9973 11.025 73.5383 11.293 78.6297 11.293H83.6445V21.0547C83.6445 26.4141 83.6062 30.8164 83.5488 30.8164C83.4914 30.8164 83.0703 30.625 82.6301 30.3953C82.1898 30.1656 81.2328 29.8019 80.5246 29.5723C79.4336 29.2277 79.1465 29.0363 78.7254 28.4047C77.0219 25.8781 73.9594 22.6434 71.318 20.5953C69.0402 18.8152 67.2219 17.6859 64.6187 16.4609C52.1391 10.5082 37.5156 12.1351 26.6055 20.6336C24.5 22.2988 21.648 25.1891 20.1934 27.1414L19.0449 28.7109H16.7098H14.3555V20.0019V11.293H19.3895C27.4859 11.293 32.4816 10.5656 38.6258 8.47929C41.7648 7.42655 46.7031 5.1871 48.3301 4.07694C48.8852 3.71327 49.0383 3.75155 50.7035 4.6703ZM50.6844 16.5758C53.0004 17.7242 55.5269 21.9351 57.1539 27.3519C57.441 28.309 57.6324 29.1512 57.575 29.1894C57.5176 29.2469 56.9816 29.1703 56.35 28.998C55.4695 28.7684 53.9766 28.7109 49 28.7109C44.0234 28.7109 42.5305 28.7684 41.65 28.998C41.0184 29.1703 40.4824 29.2469 40.425 29.1894C40.291 29.0555 41.0949 26.3949 41.9562 24.2129C43.9852 19.0641 46.5309 16.1164 49.0191 16.0781C49.3828 16.0781 50.1293 16.3078 50.6844 16.5758ZM60.4844 18.0879C64.7336 19.6383 68.7531 22.2223 72.3133 25.7441C73.6914 27.1414 74.8398 28.3473 74.8398 28.4621C74.8398 28.5769 74.2465 28.7109 73.5191 28.7684C71.8922 28.9023 69.5379 29.668 68.0832 30.5676C66.7434 31.3715 64.9633 32.9984 64.2168 34.0512L63.6809 34.8359L63.1066 33.9172C62.8004 33.4195 62.3027 32.7496 62.0156 32.4051C61.7094 32.0605 61.4223 31.448 61.3457 30.9695C61.0777 29.3809 59.7379 24.9594 58.8766 22.7965C58.398 21.6098 57.4984 19.8105 56.8859 18.7769C56.2926 17.7625 55.7758 16.882 55.7375 16.8055C55.6609 16.6332 58.7043 17.4562 60.4844 18.0879ZM41.3055 18.4133C39.602 21.1504 38.2047 24.7297 37.0371 29.3809C36.482 31.6012 36.2906 32.0988 35.6973 32.7879C35.3145 33.2281 34.7211 34.166 34.3766 34.8551L33.7641 36.1375L33.1133 34.9508C32.7496 34.3191 31.7926 33.1324 31.0078 32.3285C29.2086 30.5293 27.1797 29.4383 24.5957 28.9215L22.873 28.5769L25.5527 25.8973C29.8594 21.6098 34.2234 19.0066 39.8125 17.3414C42.4348 16.5758 42.4539 16.5758 41.3055 18.4133ZM24.2703 32.0605C28.4238 33.0367 31.582 36.7883 31.582 40.7695C31.582 42.3582 31.2184 42.741 29.6488 42.8367L28.4047 42.9133L28.4238 41.4203C28.4238 40.2336 28.3281 39.7359 28.0027 39.1426C27.1031 37.4582 25.5527 36.5777 23.5047 36.5586H22.2031V38.0898V39.6211H23.0645C24.0406 39.6211 24.9594 40.0039 25.1508 40.4824C25.6102 41.7266 24.9785 42.7027 23.6195 42.8176C22.7199 42.9133 22.6051 42.8559 20.5379 41.4777C18.0496 39.7934 16.9012 39.4297 15.3125 39.8125C12.7285 40.425 11.1016 42.6453 11.1016 45.5547C11.1016 46.2055 11.025 46.3203 10.3934 46.6457C9.99141 46.8562 9.37891 47.3922 9.05351 47.8324C7.36914 50.0144 7.88594 53.1918 10.1637 54.6082L11.1016 55.1824V57.0582C11.1016 58.1109 11.025 58.9531 10.9293 58.9531C10.3551 58.9531 7.27344 55.948 6.14414 54.3019C3.94297 51.0672 2.73711 45.9375 3.54102 43.143C3.78984 42.2242 4.05781 41.8223 4.93828 40.9609C5.64648 40.2719 6.31641 39.8125 6.8332 39.6594C7.27344 39.5254 7.69453 39.334 7.75195 39.2574C7.80937 39.1617 8.01992 38.2621 8.23047 37.2476C8.44101 36.2332 8.76641 35.0848 8.97695 34.6637C9.49375 33.6492 10.9867 32.4051 12.0395 32.0797C13.3219 31.6777 22.5859 31.6586 24.2703 32.0605ZM56.5031 32.3094C58.6086 33.1516 60.2738 34.8359 61.0777 36.9031C61.5754 38.2047 61.6711 40.5781 61.2691 41.9562L61.0012 42.875H58.4937C54.3019 42.875 52.3879 42.2434 50.2059 40.1379L49 38.9894L47.7941 40.1379C45.6121 42.2434 43.698 42.875 39.5062 42.875H36.9988L36.75 42.0519C36.1566 40.0613 36.3672 37.8601 37.3434 35.9461C37.8602 34.9316 39.5254 33.2664 40.5398 32.7496C42.3008 31.85 42.9707 31.7926 49.3828 31.8309C55.1441 31.8691 55.4504 31.8883 56.5031 32.3094ZM78.5723 32.2711C84.257 33.8023 88.4871 38.2238 89.6547 43.8703C90.4012 47.4496 89.7504 51.2777 87.8363 54.5508C87.1664 55.7375 84.7355 58.5703 84.4101 58.5703C84.3336 58.5703 84.1805 57.8238 84.0465 56.8859C83.8551 55.3738 83.8551 55.2016 84.1613 55.0293C85.75 54.0914 86.7836 52.407 86.7836 50.7418C86.7644 48.9617 85.75 47.2965 84.1805 46.4926C83.7402 46.2629 83.4531 45.9758 83.4531 45.7652C83.4531 45.0379 82.1133 42.7219 81.1562 41.8414C79.6441 40.425 77.1559 39.5062 75.2992 39.6594C74.6293 39.7168 74.591 39.7551 74.1699 41.0758C73.2512 43.9851 71.2414 45.6887 68.5043 45.8992C66.9348 46.0141 66.016 45.6121 65.3078 44.5402C64.8293 43.832 64.791 43.6215 64.8102 41.9371C64.8867 37.1711 67.8152 33.3812 72.3898 32.1562C74.0168 31.6969 76.6582 31.7543 78.5723 32.2711ZM18.8535 44.1383C21.227 45.7461 21.6863 45.9375 23.409 45.9375C24.7297 45.9375 24.8254 45.9758 25.0359 46.416C25.1891 46.7605 25.2656 48.4449 25.2656 51.6031C25.2656 56.8094 25.2273 57.0008 24.0215 57.9195C23.2367 58.5129 21.9734 58.7234 20.9973 58.398C20.3465 58.1684 18.9492 56.8668 18.9492 56.4648C18.9492 56.3117 16.4227 57.441 16.0973 57.7281C15.9059 57.9004 17.4945 59.9293 18.2602 60.5035L19.1406 61.116V63.1066V65.0781L18.0305 64.9633C17.016 64.8484 15.5805 65.0398 14.6809 65.3652C14.3746 65.4992 14.3555 65.0973 14.3555 58.8766V52.2539H13.2453C12.3074 52.2539 12.0586 52.1773 11.6758 51.7754C11.1016 51.1629 11.1016 50.2824 11.6758 49.6699C12.0586 49.268 12.3074 49.1914 13.2453 49.1914H14.3555V46.7414C14.3746 44.1383 14.5086 43.6023 15.3316 43.143C16.2695 42.6262 16.9203 42.8176 18.8535 44.1383ZM78.3426 43.6215C79.8164 44.5785 80.5629 46.1098 80.582 48.2727V49.1914H81.6348C82.5152 49.1914 82.7832 49.268 83.166 49.6699C83.7976 50.2824 83.7976 51.1629 83.166 51.7754C82.7832 52.1773 82.5152 52.2539 81.5391 52.2539C80.5437 52.2539 80.3906 52.3113 80.3906 52.5984C80.3906 52.7898 80.7351 55.6992 81.1562 59.0488C81.5965 62.3793 81.9219 65.1355 81.8836 65.1547C80.6203 65.6906 79.4527 66.4562 78.9168 67.107C78.2852 67.8535 78.1894 67.8918 77.6727 67.7195C77.3473 67.6047 76.8113 67.2219 76.4477 66.8582L75.7969 66.2074V63.5469C75.7969 61.9582 75.8734 60.8672 75.9883 60.8672C76.4859 60.8672 78.668 58.4555 78.668 57.9004C78.668 57.5559 75.95 56.3117 75.8352 56.618C75.682 57.1156 74.8207 57.9578 74.1891 58.2641C72.9832 58.8383 71.5668 58.6086 70.5523 57.6516C69.5953 56.7519 69.4805 56.216 69.4805 52.4836V49.0383L70.3992 48.8086C72.6961 48.2344 75.3949 46.0906 76.3711 44.0809C76.6391 43.5258 76.9836 43.0855 77.1559 43.0664C77.309 43.0664 77.8449 43.3152 78.3426 43.6215ZM50.1293 44.1191C51.4309 44.923 52.7133 45.4207 54.2254 45.7461L55.3164 45.9566V49.7465C55.3164 53.9 55.1633 54.7613 54.2062 56.2926C53.9 56.7711 53.1535 57.5559 52.541 58.0152C50.8949 59.2594 50.6844 59.623 50.5695 61.384C50.493 62.6855 50.3973 63.0109 49.7848 63.968C49.4019 64.5805 49.0574 65.0781 49 65.0781C48.9426 65.0781 48.5789 64.5805 48.1961 63.968C47.5836 63.0301 47.4687 62.6855 47.4687 61.8242C47.4687 59.8336 47.2008 59.3742 44.8273 57.4602C44.3297 57.0773 43.8129 56.3691 43.4109 55.5652L42.7793 54.2828L42.7219 50.1293L42.6644 45.9758L43.7746 45.7461C45.325 45.4207 46.6457 44.9039 47.8516 44.1191C48.4258 43.7555 48.9426 43.4492 48.9617 43.4492C49 43.4492 49.5359 43.7555 50.1293 44.1191ZM34.2617 44.2531C34.2617 44.3871 34.0512 44.923 33.7832 45.4398C32.8836 47.2199 33.2281 49.4785 34.6445 50.8758C35.5633 51.8137 36.3098 52.1008 37.9941 52.2348L39.5254 52.3496L39.5637 53.1152C39.7359 55.7566 40.7695 58.0152 42.6453 59.7187C43.3344 60.3504 43.966 60.8672 44.0426 60.8672C44.1383 60.8672 44.2148 61.1543 44.2148 61.518V62.1496L42.3582 62.6855C38.0133 63.8914 35.3719 66.15 33.9363 69.825C33.477 70.9926 33.4195 71.4137 33.343 74.3039L33.2664 77.5195H31.3141H29.3809L26.4141 72.7918C24.7871 70.1887 23.1793 67.7387 22.8348 67.3559L22.184 66.6477L22.2414 64.1977L22.2988 61.7285L23.1793 61.6137C25.0934 61.3266 27.1031 59.757 28.0027 57.843C28.4047 56.9816 28.4238 56.7137 28.4238 51.4309V45.9375H29.7637C31.2758 45.9375 32.673 45.4016 33.477 44.5211C33.9937 43.9851 34.2617 43.8894 34.2617 44.2531ZM39.5254 47.5644V49.0957H38.3961C37.4199 49.0766 37.2285 49.0191 36.8266 48.5598C36.2906 47.9281 36.2523 47.3539 36.6734 46.7414C37.0945 46.148 37.6305 45.9375 38.6641 45.9949L39.5254 46.0332V47.5644ZM61.1926 46.5883C61.7477 47.2582 61.7477 47.8898 61.1734 48.5598C60.7715 49.0191 60.5801 49.0766 59.6039 49.0957H58.4746L58.4172 47.775C58.3406 45.9184 58.3598 45.8801 59.6613 45.9758C60.5418 46.0523 60.8289 46.1672 61.1926 46.5883ZM66.418 53.0578C66.5328 57.3836 66.5711 57.5941 67.5855 59.068C68.5043 60.4269 69.9781 61.2691 72.2176 61.7285L72.7344 61.8242V63.6426V65.4418L71.5477 66.0734C69.9207 66.9348 68.1598 68.7148 67.375 70.3035C67.0305 71.0117 66.7242 71.5859 66.6859 71.5859C66.6477 71.5859 66.1883 71.7582 65.6715 71.9687L64.7144 72.3324L64.5805 71.6242C64.3891 70.4758 63.5469 68.5043 62.7621 67.3559C61.25 65.0973 58.9723 63.6234 55.6609 62.6855L53.7852 62.1496V61.518C53.7852 61.1543 53.8617 60.8672 53.9574 60.8672C54.034 60.8672 54.6656 60.3504 55.3547 59.7187C57.2305 58.0152 58.2641 55.7566 58.4363 53.1152L58.4746 52.3496L60.0059 52.2348C60.848 52.1773 61.8051 51.9859 62.1113 51.8137C63.0492 51.3352 64.1019 50.1293 64.4465 49.1723L64.7719 48.2918L65.5375 48.6363L66.3223 48.9809L66.418 53.0578ZM92.6406 55.6227C94.4973 57.3644 95.1098 59.6039 94.3824 61.9773C93.6551 64.3891 91.5113 66.1691 89.1187 66.3605C88.0851 66.4562 87.8172 66.3988 87.1664 65.9969C86.7644 65.7289 86.1137 65.4227 85.7309 65.2887C85.0418 65.059 85.0226 65.059 84.8887 63.6809L84.7547 62.3219L85.5012 61.7285C87.7789 59.9484 89.9226 57.4984 90.8988 55.5461C91.1285 55.1059 91.3965 54.7422 91.5113 54.7422C91.607 54.7422 92.1238 55.1441 92.6406 55.6227ZM46.0906 66.5519L46.9328 67.8152L45.8992 68.8488L44.8656 69.8824L44.0809 67.8152L43.3152 65.748L43.9086 65.5184C45.0187 65.0973 45.2102 65.193 46.0906 66.5519ZM54.0914 65.5184L54.6848 65.748L53.9191 67.8152L53.1344 69.8824L52.1008 68.8488L51.0672 67.8152L51.9094 66.5519C52.7898 65.193 52.9812 65.0973 54.0914 65.5184ZM41.918 71.0309C42.7602 73.2895 43.5066 75.2418 43.5641 75.3949C43.6215 75.5863 44.5211 74.8207 46.3203 73.0215L49 70.3418L51.6797 73.0215C54.2254 75.5672 54.3402 75.6629 54.5125 75.2035C57.6324 66.8391 57.6324 66.8008 58.0535 67.0305C58.8 67.4324 60.2547 69.0785 60.7523 70.1121C61.2117 71.05 61.8051 73.4043 61.6137 73.5574C61.5754 73.5957 59.4316 74.4762 56.8477 75.5098C53.5555 76.8305 51.7945 77.443 50.9523 77.5578C50.1867 77.6535 49.3445 77.9215 48.6937 78.266L47.641 78.8402L46.9519 78.3617C46.5883 78.1129 45.9566 77.8258 45.5738 77.7109C44.5211 77.4238 41.8605 77.4812 40.8461 77.8258C40.0422 78.0937 39.9082 78.0937 39.2191 77.8258C38.798 77.6535 37.975 77.5195 37.4008 77.5195H36.3289L36.4055 74.6867C36.5012 71.5477 36.7117 70.8012 37.841 69.1359C38.4535 68.2363 40.1379 66.6859 40.3102 66.8582C40.3484 66.8965 41.0758 68.7723 41.918 71.0309ZM19.7531 68.8105C20.4039 69.2699 21.1504 70.3227 23.409 73.8828C24.9785 76.352 26.2992 78.4957 26.3566 78.6297C26.4141 78.7828 26.0121 79.357 25.3422 80.027L24.2129 81.1562L25.323 82.2473L26.4141 83.3574L27.8113 81.9602L29.1895 80.582H33.5535H37.8984V82.9937V85.3863L31.6395 85.3289L25.3613 85.2715L24.1172 84.6781C23.1984 84.2379 21.6863 83.0512 18.2602 80.0461C12.9773 75.4332 12.8242 75.2227 12.8242 72.8875C12.8434 69.8441 14.6234 68.0641 17.552 68.1789C18.7195 68.2363 19.0449 68.332 19.7531 68.8105ZM85.3672 68.5809C86.6687 69.4422 86.8027 69.9207 86.8601 73.9211L86.9367 77.5195H83.7594H80.582V73.9402C80.582 70.4949 80.6012 70.3418 81.0605 69.5762C81.3094 69.1359 81.807 68.6383 82.1516 68.466C83.0894 67.9875 84.6016 68.0449 85.3672 68.5809ZM75.6055 70.1887C75.9691 70.4184 76.5051 70.6672 76.8113 70.7246L77.3281 70.8586V82.898V94.9375L74.2273 94.8992L71.1074 94.8418L71.0117 87.2812L70.916 79.7207L70.2652 77.998C69.7293 76.5625 69.6144 75.9883 69.5953 74.6484C69.5762 73.2703 69.6527 72.8684 70.0738 71.9496C70.6672 70.7055 71.7965 69.4805 72.8684 68.9445L73.5957 68.5617L74.2656 69.1742C74.6293 69.4996 75.2418 69.959 75.6055 70.1887ZM66.4945 76.1223C66.5519 76.6199 66.8008 77.6152 67.0305 78.3234C67.2602 79.0316 67.3941 79.6633 67.3367 79.7398C67.2602 79.7973 65.193 80.6203 62.743 81.5582C60.293 82.5152 57.173 83.7211 55.7949 84.257C53.5937 85.1184 53.1344 85.2332 51.8328 85.2523C50.4164 85.2715 50.3207 85.2332 49.7656 84.6973C48.732 83.6445 48.8086 81.9793 49.9379 81.1754C50.225 80.9648 51.048 80.716 51.7754 80.6012C52.7516 80.4672 54.8953 79.7016 59.5273 77.8258C63.0492 76.4094 66.0352 75.2418 66.15 75.2227C66.2648 75.2227 66.418 75.6246 66.4945 76.1223ZM16.2695 82.4961C20.4805 86.1902 21.3801 86.8984 22.6816 87.4918C23.7344 87.9703 25.2273 88.3531 26.4141 88.468L26.8926 88.5254V91.6836V94.8418L19.868 94.8992L12.8242 94.9375V87.2812C12.8242 81.1945 12.8816 79.625 13.073 79.7398C13.1879 79.8164 14.6426 81.0605 16.2695 82.4961ZM44.8656 80.85C45.6887 81.1945 46.0332 82.1324 45.8801 83.5297C45.6887 85.0609 45.2102 85.3672 42.9516 85.3672H41.1523V83.2617V81.1371L41.784 80.8691C42.5879 80.5246 44.0617 80.5055 44.8656 80.85ZM86.8027 87.7598V94.8418L83.7019 94.8992L80.582 94.9375V87.7598V80.582L83.7019 80.6203L86.8027 80.6777V87.7598ZM61.5371 94.6887C61.4797 94.8992 58.9531 94.9375 48.9617 94.8992L36.4629 94.8418L36.4055 91.741L36.3672 88.6594L40.9035 88.5828C45.1719 88.5254 45.5164 88.4871 46.2629 88.0852C46.7031 87.8555 47.1051 87.5875 47.1816 87.4727C47.373 87.1664 47.8324 87.243 48.4258 87.6641C49.3828 88.3531 51.0098 88.6402 52.6367 88.4297C54.168 88.2383 54.7039 88.066 58.8574 86.4582L61.5371 85.4055L61.5945 89.9418C61.6137 92.4109 61.5945 94.5547 61.5371 94.6887Z" fill="#073945"/>
</svg>
