<svg width="100" height="81" viewBox="0 0 100 81" fill="none" xmlns="http://www.w3.org/2000/svg">
<path fill-rule="evenodd" clip-rule="evenodd" d="M44.1637 74.7671C68.0866 74.7671 87.4805 76.0597 87.4805 77.6539C87.4805 79.2481 68.0866 80.5407 44.1637 80.5407C20.2408 80.5407 0.846924 79.2481 0.846924 77.6539C0.846924 76.0597 20.2408 74.7671 44.1637 74.7671Z" fill="#B3B3B3"/>
<path fill-rule="evenodd" clip-rule="evenodd" d="M0 2.31519L0.761571 1.0498C0.761571 1.0498 4.64769 4.84558 17.8296 4.76659L17.6009 6.07165C17.6009 6.07165 6.51477 6.94209 0 2.31519Z" fill="#9BD302"/>
<path fill-rule="evenodd" clip-rule="evenodd" d="M16.3283 10.4019C15.7595 10.513 16.9387 21.3965 26.2341 28.5939C35.5291 35.7912 55.4926 38.4792 66.6172 35.3161C77.7423 32.153 43.073 18.1529 43.073 18.1529L16.3283 10.4019Z" fill="#80AB03"/>
<path fill-rule="evenodd" clip-rule="evenodd" d="M99.4753 48.7427C99.4753 48.7427 96.505 42.6134 85.8376 40.6363C75.1703 38.6593 15.6586 39.4998 15.3551 6.13719L15.3974 4.73613C15.3974 4.73613 30.0042 0 51.3388 0C72.6731 0 92.0678 5.57744 97.3247 19.8932C102.581 34.2089 97.1717 30.8081 99.4753 48.7427Z" fill="#9BD302"/>
<path fill-rule="evenodd" clip-rule="evenodd" d="M16.6318 5.40096C16.6318 5.40096 19.2983 4.68927 39.9478 8.5648C60.5976 12.4403 89.856 19.7167 97.1713 41.6259C97.1713 41.6259 91.3047 25.8868 66.2359 17.977C41.167 10.0672 16.6318 5.40096 16.6318 5.40096Z" fill="#C2EB4F"/>
<path fill-rule="evenodd" clip-rule="evenodd" d="M50.4907 33.7807C50.4907 33.7807 50.6434 24.2888 55.672 20.9673C55.672 20.9673 56.6619 20.9083 55.7287 22.0547C54.7959 23.2014 51.8997 24.7631 50.4907 33.7807ZM29.966 56.4155C29.6061 57.219 29.1893 58.1424 28.7331 59.139C27.2224 55.3897 26.8441 52.4447 31.2544 52.3226C30.4989 53.4928 29.9958 54.8674 29.966 56.4155ZM28.0067 60.7151C25.2918 66.5681 21.6861 73.8773 20.375 74.4166C18.1655 75.3264 14.8962 73.3999 14.0889 74.852C13.2816 76.3041 16.7935 74.6937 19.1557 75.6824C21.5183 76.6707 22.1283 76.0777 23.9187 72.0835C24.8012 70.1151 26.6831 65.6383 28.3646 61.6048C29.6213 64.6344 31.2767 67.7896 32.0715 70.224C33.5947 74.8902 32.9476 75.8389 31.4619 75.8789C29.9758 75.919 24.2626 76.6394 23.918 77.975C23.5729 79.3111 24.1084 79.3591 25.9374 78.3704C27.7663 77.3821 29.4803 76.8676 31.8807 77.1443C34.281 77.4213 35.0808 77.1443 35.0808 75.7999C35.0808 74.4556 32.3754 67.2189 29.8609 61.7216C29.5831 61.1142 29.3136 60.5144 29.0626 59.9305L30.0242 57.6128C30.5605 62.3981 34.5747 65.4984 34.5747 65.4984C34.5747 65.4984 42.0427 63.8366 44.0995 55.9276C44.0995 55.9276 45.5331 54.6436 47.0596 52.5607C49.1096 55.0329 52.3982 59.3885 52.3982 61.8932C52.3982 65.5321 38.8282 71.8662 38.9419 73.804C39.0561 75.7417 40.9617 74.7137 44.0855 73.7242C47.2097 72.7351 48.6576 73.1713 49.686 74.4367C50.7144 75.7024 51.363 72.1825 47.6292 72.1825C43.8958 72.1825 41.9142 74.7927 41.9142 73.4876C41.9142 72.1825 53.6103 65.3012 53.6103 61.7023C53.6103 59.2894 50.3062 54.1221 48.1277 50.9775C48.5956 50.2186 49.0427 49.392 49.4267 48.5136C54.6187 55.1803 66.3318 74.7129 69.1676 74.7129C72.2536 74.7129 73.3209 66.4875 72.6723 66.4875C72.0242 66.4875 70.6155 72.2222 68.9389 72.2222C67.262 72.2222 65.0914 68.5036 60.1772 62.5323C56.3675 57.9027 51.6642 50.7315 49.7427 47.7411C49.9203 47.2739 50.0787 46.7947 50.2114 46.3049C50.5323 46.3608 50.8943 46.3982 51.2454 46.3752C53.3782 47.9562 56.1256 48.4535 57.5784 48.4535C58.3498 48.4535 59.0604 48.2986 59.6776 47.9822C60.7997 49.3073 63.2008 51.5183 66.7222 51.5183C71.7513 51.5183 67.37 42.9558 67.37 40.9988C67.37 39.0414 69.5414 38.725 69.5414 38.725H68.4744C65.2735 38.725 65.8839 42.8383 67.1792 44.8154C68.4744 46.7928 68.6271 49.8769 66.1889 49.8769C64.4995 49.8769 62.2265 48.0181 60.9887 46.8752C61.6728 45.9685 62.0742 44.6597 62.0742 42.9169C62.0742 39.1204 59.7879 34.6911 54.3023 34.6911C54.3023 34.6911 48.2823 33.9005 48.2823 40.3861C48.2823 40.9542 48.3341 41.4837 48.4305 41.9788C48.3564 42.7914 48.3254 43.8176 48.4048 45.0527C48.4048 45.0527 47.6874 44.9688 46.5656 45.3347C37.9366 44.0356 34.8774 43.6675 34.8774 42.2634C34.8774 40.7603 40.1571 35.5922 39.8683 34.4731C39.5792 33.3536 37.2778 33.2863 35.2203 33.2863C33.1627 33.2863 32.6679 30.7551 32.211 31.0322C30.6871 35.0268 39.1067 33.2466 39.1067 34.5517C39.1067 35.8568 33.2394 40.3257 33.2394 42.8175C33.2394 44.6124 40.6749 45.6892 44.832 46.1507C43.9634 46.6866 42.997 47.4799 42.0037 48.6516C42.0037 48.6516 40.4031 47.8602 38.0417 47.8602C36.6073 47.8602 33.9367 49.0855 32.0602 51.2523C30.3269 51.2035 27.5811 51.5701 26.8898 54.2468C26.4495 55.9506 27.0531 58.2629 28.0067 60.7151ZM74.3512 25.4612C74.3021 23.9769 66.2449 24.6856 58.7395 34.4542C58.7395 34.4542 65.3684 26.4268 70.9307 26.4268C72.8934 26.7662 74.448 25.9937 74.3512 25.4612Z" fill="#2B2A29"/>
</svg>
