<svg width="65" height="90" viewBox="0 0 65 90" fill="none" xmlns="http://www.w3.org/2000/svg">
<path d="M32.4 0C14.5332 0 0 14.5368 0 32.4C0 43.8696 6.4116 51.4008 11.5632 57.4524C15.0192 61.506 18 65.0124 18 68.4V86.4H28.8V90H36V86.4H46.8V68.4C46.8 65.0124 49.7808 61.506 53.2368 57.4524C58.3884 51.4008 64.8 43.8696 64.8 32.4C64.8 14.5368 50.2668 0 32.4 0ZM39.6 79.2H25.2V72H39.6V79.2ZM47.754 52.7832C44.4312 56.6856 41.256 60.4152 40.0788 64.8H24.7212C23.544 60.4152 20.3688 56.6856 17.046 52.7832C12.2076 47.0988 7.2 41.22 7.2 32.4C7.2 18.504 18.5076 7.2 32.4 7.2C46.2924 7.2 57.6 18.504 57.6 32.4C57.6 41.22 52.5924 47.0988 47.754 52.7832ZM32.4 10.8V18C24.4584 18 18 24.4584 18 32.4H10.8C10.8 20.4876 20.4876 10.8 32.4 10.8Z" fill="#0D8391"/>
</svg>
