<svg width="78" height="78" viewBox="0 0 78 78" fill="none" xmlns="http://www.w3.org/2000/svg">
<path d="M47.0024 58.3915L39.4172 50.8695C35.9312 47.4126 34.1879 45.6839 32.181 45.0355C30.4156 44.4649 28.5156 44.4649 26.7499 45.0355C24.7431 45.6839 22.9999 47.4126 19.5136 50.8695L1.85186 68.6581M47.0024 58.3915L48.5098 56.896C52.0697 53.3662 53.8491 51.6013 55.8914 50.9574C57.6872 50.3907 59.6169 50.4128 61.3994 51.0205C63.4258 51.7117 65.1646 53.5168 68.6419 57.1275L72.3333 60.8754M47.0024 58.3915L64.4717 76.169M1.85186 68.6581C1.66666 67.0875 1.66666 65.0558 1.66666 62.2V19.8C1.66666 14.8529 1.66666 12.3793 2.62945 10.4898C3.4763 8.82763 4.82767 7.47631 6.48975 6.62946C8.37929 5.66667 10.8528 5.66667 15.8 5.66667H32.5833M1.85186 68.6581C1.98749 69.8082 2.22241 70.7114 2.62945 71.5103C3.4763 73.1723 4.82767 74.5238 6.48975 75.3705C8.37929 76.3333 10.8528 76.3333 15.8 76.3333H58.2C63.1471 76.3333 65.6209 76.3333 67.5103 75.3705C69.1723 74.5238 70.5238 73.1723 71.3705 71.5103C72.3333 69.6209 72.3333 67.1471 72.3333 62.2V45.4167M50.25 11.3452L58.2 18.9167L76.75 1.25" stroke="white" stroke-width="2" stroke-linecap="round" stroke-linejoin="round"/>
</svg>
