<svg width="40" height="40" viewBox="0 0 40 40" fill="none" xmlns="http://www.w3.org/2000/svg">
<g clip-path="url(#clip0_410_1259)">
<path d="M40 20C40 8.9543 31.0457 0 20 0C8.9543 0 0 8.9543 0 20C0 31.0457 8.9543 40 20 40C31.0457 40 40 31.0457 40 20Z" fill="#C3F922"/>
<path d="M25.7721 22.5127C25.4588 22.3556 23.9177 21.5982 23.6308 21.4927C23.3428 21.3883 23.1339 21.3366 22.924 21.6509C22.7162 21.9642 22.1149 22.6699 21.9324 22.8788C21.75 23.0887 21.5664 23.114 21.2531 22.9579C20.9398 22.7996 19.9293 22.4695 18.732 21.402C17.8006 20.5707 17.1708 19.5444 16.9884 19.23C16.8059 18.9167 16.9694 18.7469 17.1255 18.5908C17.2668 18.4505 17.4398 18.2248 17.5959 18.0423C17.7531 17.8587 17.8048 17.7279 17.9103 17.518C18.0147 17.3091 17.963 17.1267 17.8839 16.9695C17.8048 16.8123 17.1782 15.2691 16.9177 14.6414C16.6624 14.0307 16.404 14.114 16.212 14.1034C16.0295 14.095 15.8206 14.0929 15.6107 14.0929C15.4019 14.0929 15.0622 14.171 14.7753 14.4853C14.4884 14.7986 13.6782 15.557 13.6782 17.1003C13.6782 18.6425 14.8016 20.133 14.9578 20.3429C15.1149 20.5518 17.1687 23.7184 20.3132 25.076C21.0611 25.3988 21.6445 25.5918 22.1002 25.7353C22.8512 25.9748 23.5348 25.941 24.0738 25.8598C24.6761 25.7701 25.9282 25.1013 26.1898 24.3693C26.4514 23.6372 26.4514 23.0096 26.3723 22.8788C26.2943 22.748 26.0865 22.6699 25.7721 22.5127ZM20.0527 30.3218H20.0485C18.1811 30.322 16.3481 29.8199 14.7415 28.8682L14.3607 28.6425L10.4145 29.6783L11.4673 25.8302L11.2194 25.4357C10.1755 23.7736 9.62331 21.85 9.62654 19.8872C9.62759 14.1383 14.3059 9.46104 20.0569 9.46104C22.8417 9.46104 25.4599 10.5475 27.4282 12.518C28.3994 13.4849 29.1692 14.6348 29.693 15.9012C30.2168 17.1675 30.4843 18.5252 30.4799 19.8956C30.4768 25.6446 25.7995 30.3218 20.0527 30.3218ZM28.9272 11.0212C27.7649 9.85125 26.3821 8.92363 24.8587 8.29205C23.3353 7.66047 21.7018 7.3375 20.0527 7.34184C13.1381 7.34184 7.51051 12.9695 7.50734 19.8861C7.50734 22.0971 8.08434 24.2553 9.18245 26.1572L7.40186 32.6583L14.0527 30.9136C15.8919 31.9156 17.9529 32.4407 20.0474 32.441H20.0527C26.9662 32.441 32.5949 26.8134 32.5981 19.8956C32.6032 18.2472 32.2814 16.6141 31.6513 15.0908C31.0212 13.5675 30.0953 12.1843 28.9272 11.0212Z" fill="#F6F5F5" stroke="#F6F5F5"/>
</g>
<defs>
<clipPath id="clip0_410_1259">
<rect width="40" height="40" fill="white"/>
</clipPath>
</defs>
</svg>
