<svg width="32" height="32" viewBox="0 0 32 32" fill="none" xmlns="http://www.w3.org/2000/svg">
<rect x="0.499969" y="0.5" width="31" height="31" rx="15.5" stroke="black"/>
<path d="M8.05301 12.5085C8.09322 11.63 8.23078 11.0634 8.41681 10.5824L8.41931 10.5758C8.60367 10.0863 8.89246 9.64295 9.2656 9.27648L9.27084 9.27134L9.27598 9.26611C9.64275 8.89249 10.0863 8.60397 10.5753 8.42011L10.5837 8.41689C11.0636 8.23027 11.6291 8.09321 12.5084 8.05301M8.05301 12.5085C8.01074 13.4472 7.99997 13.7382 7.99997 16.1721C7.99997 18.6064 8.01015 18.8967 8.05298 19.8356M8.05301 12.5085V12.7453M12.5084 8.05301C13.4473 8.01018 13.7382 8 16.172 8C18.6058 8 18.8965 8.01076 19.8352 8.05302M12.5084 8.05301H12.7458M8.05298 19.8356C8.09318 20.715 8.23023 21.2804 8.41686 21.7603L8.42008 21.7688M8.05298 19.8356L8.06738 19.9115M8.05298 19.8356V19.5983M8.05301 12.7453C8.05629 12.6701 8.05984 12.5917 8.06363 12.5083C8.10768 11.547 8.27109 10.9854 8.42685 10.587C8.62844 10.0668 8.8838 9.67422 9.27392 9.28247C9.64474 8.90208 10.0955 8.60895 10.5936 8.42431C10.9902 8.27048 11.5504 8.10756 12.508 8.06367C12.5917 8.05987 12.6703 8.05632 12.7458 8.05301M8.05301 12.7453C8.01822 13.5408 8.01074 13.9796 8.01074 16.1721C8.01074 18.3637 8.01822 18.8032 8.05298 19.5983M8.05301 12.7453L8.05298 19.5983M8.42008 21.7688C8.60394 22.2578 8.89246 22.7013 9.26608 23.0681L9.2713 23.0732L9.27643 23.0784C9.64292 23.4516 10.0863 23.7404 10.5757 23.9247L10.583 23.9275C11.0634 24.1138 11.6291 24.2509 12.5084 24.2911M8.42008 21.7688L8.40906 21.7107M8.40906 21.7107L8.06738 19.9115M8.40906 21.7107C8.26394 21.3274 8.11452 20.7924 8.06738 19.9115M8.40906 21.7107C8.41415 21.7242 8.41923 21.7374 8.42431 21.7505C8.60833 22.2466 8.89992 22.6959 9.27811 23.0658C9.64801 23.444 10.0971 23.7355 10.593 23.9196C10.991 24.0746 11.5518 24.2366 12.5083 24.2804C13.4735 24.3244 13.7717 24.3333 16.172 24.3333C18.5724 24.3333 18.8708 24.3244 19.8361 24.2804C20.7936 24.2365 21.3538 24.0736 21.7504 23.9198C22.2466 23.7359 22.6959 23.4442 23.0659 23.0658C23.444 22.6959 23.7355 22.2469 23.9196 21.751C24.0746 21.353 24.2366 20.7922 24.2804 19.8358C24.3243 18.8706 24.3333 18.5718 24.3333 16.1721C24.3333 13.7723 24.3243 13.4732 24.2804 12.508C24.2363 11.5454 24.0719 10.9844 23.9173 10.5875C23.7153 10.0659 23.4591 9.67147 23.0653 9.27767C22.6723 8.88543 22.2789 8.62908 21.7569 8.42685C21.3586 8.27111 20.7972 8.10772 19.8361 8.06367C19.7524 8.05987 19.6738 8.05632 19.5985 8.05302M8.06738 19.9115C8.06605 19.8866 8.0648 19.8615 8.06363 19.8361C8.05984 19.7524 8.05629 19.6738 8.05298 19.5983M19.5985 8.05302H19.8352M19.5985 8.05302L12.7458 8.05301M19.5985 8.05302C18.8033 8.01826 18.3639 8.01077 16.172 8.01077C13.9803 8.01077 13.5408 8.01825 12.7458 8.05301M19.8352 8.05302C20.7139 8.09322 21.2806 8.23076 21.7617 8.41682L21.7683 8.41934C22.2577 8.6037 22.7011 8.8925 23.0676 9.26563L23.0726 9.27082L23.0779 9.27591C23.451 9.6424 23.7398 10.0859 23.924 10.5755L23.9271 10.5837C24.1138 11.0636 24.2509 11.6291 24.291 12.5084M24.291 19.8356C24.2509 20.7149 24.1138 21.2807 23.9275 21.761L23.9247 21.7683C23.7403 22.2578 23.4516 22.7011 23.0784 23.0676L23.0731 23.0727L23.0681 23.078C22.7013 23.4516 22.2578 23.7401 21.7687 23.9239L21.7603 23.9272C21.2804 24.1138 20.7149 24.2509 19.8356 24.2911M14.7186 19.681C15.1793 19.8718 15.6732 19.9701 16.172 19.9701C17.1793 19.9701 18.1454 19.5699 18.8577 18.8577C19.5699 18.1454 19.9701 17.1793 19.9701 16.1721C19.9701 15.1647 19.5699 14.1987 18.8577 13.4864C18.1454 12.7741 17.1793 12.374 16.172 12.374C15.6732 12.374 15.1793 12.4722 14.7186 12.6631C14.2577 12.854 13.8391 13.1337 13.4864 13.4864C13.1337 13.8391 12.8539 14.2578 12.6631 14.7186C12.4722 15.1793 12.374 15.6733 12.374 16.1721C12.374 16.6708 12.4722 17.1647 12.6631 17.6255C12.8539 18.0863 13.1337 18.505 13.4864 18.8577C13.8391 19.2103 14.2577 19.4901 14.7186 19.681ZM13.4779 13.4779C14.1925 12.7634 15.1615 12.362 16.172 12.362C17.1825 12.362 18.1516 12.7634 18.8661 13.4779C19.5807 14.1925 19.982 15.1616 19.982 16.1721C19.982 17.1825 19.5807 18.1516 18.8661 18.8661C18.1516 19.5807 17.1825 19.982 16.172 19.982C15.1615 19.982 14.1925 19.5807 13.4779 18.8661C12.7634 18.1516 12.362 17.1825 12.362 16.1721C12.362 15.1616 12.7634 14.1925 13.4779 13.4779ZM22.1274 11.4749C22.1274 11.7642 22.0125 12.0415 21.8081 12.2461C21.6036 12.4506 21.3262 12.5655 21.037 12.5655C20.7477 12.5655 20.4704 12.4506 20.2659 12.2461C20.0614 12.0415 19.9464 11.7642 19.9464 11.4749C19.9464 11.1857 20.0614 10.9084 20.2659 10.7039C20.4704 10.4993 20.7477 10.3844 21.037 10.3844C21.3262 10.3844 21.6036 10.4993 21.8081 10.7039C22.0125 10.9084 22.1274 11.1857 22.1274 11.4749Z" stroke="black" stroke-linejoin="round"/>
</svg>
