<svg width="86" height="85" viewBox="0 0 86 85" fill="none" xmlns="http://www.w3.org/2000/svg">
<path d="M14.7812 3.28105V6.5623H12.3695C10.8765 6.5623 9.49839 6.66074 8.79292 6.80839C5.10151 7.57949 2.01714 10.6639 1.24604 14.3553C0.885107 16.0779 0.885107 74.4842 1.24604 76.2068C2.01714 79.8982 5.10151 82.9826 8.79292 83.7537C10.5156 84.1146 75.4843 84.1146 77.207 83.7537C80.8984 82.9826 83.9828 79.8982 84.7539 76.2068C85.1148 74.4842 85.1148 16.0779 84.7539 14.3553C83.9828 10.6639 80.8984 7.57949 77.207 6.80839C76.5015 6.66074 75.1234 6.5623 73.6468 6.5623H71.2187V3.28105V-0.000201036H67.9374H64.6562V3.28105V6.5623H42.9999H21.3437V3.28105V-0.000201036H18.0625H14.7812V3.28105ZM14.7812 16.4061V19.6873H18.0625H21.3437V16.4061V13.1248H42.9999H64.6562V16.4061V19.6873H67.9374H71.2187V16.3896V13.092L73.7289 13.1576C76.0914 13.2068 76.2882 13.2232 76.846 13.617C77.1906 13.8467 77.6664 14.3225 77.9124 14.667L78.3554 15.3068L78.4046 19.8021L78.4539 24.2811H43.0164H7.56245V20.1303C7.56245 17.8498 7.64448 15.7334 7.72651 15.3889C7.93979 14.667 9.05542 13.5021 9.76089 13.3053C10.0398 13.2232 11.2867 13.1412 12.5335 13.1412L14.7812 13.1248V16.4061ZM78.4046 53.0412L78.3554 75.2553L77.9124 75.8951C77.6664 76.2396 77.1906 76.7154 76.846 76.9451L76.239 77.3553H42.9999H9.76089L9.15386 76.9451C8.80933 76.7154 8.33354 76.2396 8.08745 75.8951L7.64448 75.2553L7.59526 53.0412L7.56245 30.8436H42.9999H78.4374L78.4046 53.0412Z" fill="#073945"/>
<path d="M13.4688 41.0156V44.2969H16.75H20.0312V41.0156V37.7344H16.75H13.4688V41.0156Z" fill="#073945"/>
<path d="M26.5938 41.0156V44.2969H29.875H33.1562V41.0156V37.7344H29.875H26.5938V41.0156Z" fill="#073945"/>
<path d="M39.7188 41.0156V44.2969H43H46.2812V41.0156V37.7344H43H39.7188V41.0156Z" fill="#073945"/>
<path d="M52.8438 41.0156V44.2969H56.125H59.4062V41.0156V37.7344H56.125H52.8438V41.0156Z" fill="#073945"/>
<path d="M65.9688 41.0156V44.2969H69.25H72.5312V41.0156V37.7344H69.25H65.9688V41.0156Z" fill="#073945"/>
<path d="M13.4688 54.1406V57.4219H16.75H20.0312V54.1406V50.8594H16.75H13.4688V54.1406Z" fill="#073945"/>
<path d="M26.5938 54.1406V57.4219H29.875H33.1562V54.1406V50.8594H29.875H26.5938V54.1406Z" fill="#073945"/>
<path d="M39.7188 54.1406V57.4219H43H46.2812V54.1406V50.8594H43H39.7188V54.1406Z" fill="#073945"/>
<path d="M52.8438 54.1406V57.4219H56.125H59.4062V54.1406V50.8594H56.125H52.8438V54.1406Z" fill="#073945"/>
<path d="M65.9688 54.1406V57.4219H69.25H72.5312V54.1406V50.8594H69.25H65.9688V54.1406Z" fill="#073945"/>
<path d="M13.4688 67.2656V70.5469H16.75H20.0312V67.2656V63.9844H16.75H13.4688V67.2656Z" fill="#073945"/>
<path d="M26.5938 67.2656V70.5469H29.875H33.1562V67.2656V63.9844H29.875H26.5938V67.2656Z" fill="#073945"/>
<path d="M39.7188 67.2656V70.5469H43H46.2812V67.2656V63.9844H43H39.7188V67.2656Z" fill="#073945"/>
<path d="M52.8438 67.2656V70.5469H56.125H59.4062V67.2656V63.9844H56.125H52.8438V67.2656Z" fill="#073945"/>
</svg>
