<svg width="34" height="34" viewBox="0 0 34 34" fill="none" xmlns="http://www.w3.org/2000/svg">
<path d="M17 0.965027C8.15897 0.965027 0.964966 8.15903 0.964966 17C0.964966 25.841 8.15897 33.035 17 33.035C25.841 33.035 33.035 25.841 33.035 17C33.035 8.15903 25.841 0.965027 17 0.965027ZM17 31.965C8.74797 31.965 2.03497 25.252 2.03497 17C2.03497 8.74803 8.74797 2.03503 17 2.03503C25.252 2.03503 31.965 8.74803 31.965 17C31.965 25.252 25.252 31.965 17 31.965Z" fill="black"/>
<path d="M20.5 8H17.832C14.652 8 14 9.737 14 12.345L14.002 14H12.5C12.224 14 12 14.224 12 14.5V17.5C12 17.776 12.224 18 12.5 18H14V25.5C14 25.776 14.224 26 14.5 26H17.558C17.834 26 18.058 25.776 18.058 25.5L18.06 18H20.5C20.776 18 21 17.776 21 17.5V14.5C21 14.224 20.776 14 20.5 14H18.059L18.062 12.604C18.062 11.931 18.062 11.931 18.691 11.93L20.48 12C20.607 12.004 20.748 11.955 20.846 11.861C20.944 11.767 21 11.636 21 11.5V8.5C21 8.224 20.776 8 20.5 8ZM20 10.98L18.711 10.93C17.19 10.93 17.063 11.757 17.063 12.602L17.059 14.498C17.059 14.631 17.111 14.758 17.205 14.852C17.298 14.947 17.425 15 17.558 15H20V17H17.56C17.284 17 17.06 17.224 17.06 17.5L17.058 25H15V17.5C15 17.224 14.776 17 14.5 17H13V15H14.503C14.636 15 14.763 14.947 14.857 14.853C14.951 14.759 15.003 14.632 15.003 14.499L15 12.344C15 10.079 15.424 9 17.832 9H20V10.98Z" fill="black"/>
</svg>
