<svg width="34" height="34" viewBox="0 0 34 34" fill="none" xmlns="http://www.w3.org/2000/svg">
<path d="M17 0.965027C8.15797 0.965027 0.965965 8.15903 0.965965 17C0.965965 25.841 8.15797 33.035 17 33.035C25.842 33.035 33.034 25.841 33.034 17C33.034 8.15903 25.842 0.965027 17 0.965027ZM17 31.965C8.74797 31.965 2.03397 25.252 2.03397 17C2.03397 8.74803 8.74797 2.03503 17 2.03503C25.252 2.03503 31.966 8.74803 31.966 17C31.966 25.252 25.252 31.965 17 31.965Z" fill="black"/>
<path d="M20.525 16.616C19.992 16.338 19.42 16.022 18.847 15.707C17.653 15.049 16.524 14.427 15.684 14.093C15.531 14.031 15.357 14.051 15.219 14.143C15.082 14.237 15 14.392 15 14.558V19.545C15 19.716 15.088 19.876 15.232 19.967C15.314 20.019 15.407 20.045 15.5 20.045C15.573 20.045 15.646 20.029 15.715 19.997C16.721 19.519 17.825 18.932 18.894 18.364C19.439 18.073 19.987 17.782 20.525 17.504C20.69 17.418 20.795 17.248 20.795 17.061C20.795 16.874 20.69 16.703 20.525 16.616ZM18.424 17.48C17.615 17.91 16.786 18.351 16 18.744V15.327C16.699 15.664 17.543 16.129 18.365 16.582C18.653 16.741 18.941 16.899 19.225 17.054C18.959 17.196 18.69 17.338 18.424 17.48Z" fill="black"/>
<path d="M23.304 11.626C22.492 11.333 18.304 11.31 17.04 11.31C14.536 11.31 12.37 11.382 11.245 11.503C10.606 11.57 10.047 11.868 9.62796 12.362C8.45196 13.745 8.70296 19.924 9.21596 21.332C9.48096 22.057 9.98496 22.546 10.714 22.786C11.698 23.11 16.042 23.126 16.903 23.126C18.662 23.126 22.837 23.081 23.62 22.67C24.106 22.417 24.462 22.056 24.678 21.595C25.406 20.034 25.358 14.573 24.765 13.035C24.503 12.355 24.011 11.881 23.304 11.626ZM23.771 21.172C23.65 21.432 23.449 21.631 23.159 21.782C22.806 21.949 20.495 22.126 16.903 22.126C13.624 22.126 11.465 21.98 11.026 21.835C10.59 21.692 10.313 21.423 10.155 20.989C9.65296 19.611 9.60396 13.932 10.39 13.009C10.643 12.71 10.966 12.537 11.351 12.497C12.426 12.381 14.606 12.309 17.039 12.309C20.425 12.309 22.618 12.441 22.963 12.566C23.398 12.723 23.673 12.986 23.83 13.395C24.331 14.692 24.378 19.872 23.771 21.172Z" fill="black"/>
</svg>
