<svg width="76" height="90" viewBox="0 0 76 90" fill="none" xmlns="http://www.w3.org/2000/svg">
<path d="M24.875 18.75H9.875C8.75 18.75 8 18 8 16.875C8 15.75 8.75 15 9.875 15H24.875C26 15 26.75 15.75 26.75 16.875C26.75 18 26 18.75 24.875 18.75Z" fill="#0D8391"/>
<path d="M17.375 26.25H9.875C8.75 26.25 8 25.5 8 24.375C8 23.25 8.75 22.5 9.875 22.5H17.375C18.5 22.5 19.25 23.25 19.25 24.375C19.25 25.5 18.5 26.25 17.375 26.25Z" fill="#0D8391"/>
<path d="M24.875 71.25H9.875C8.75 71.25 8 70.5 8 69.375C8 68.25 8.75 67.5 9.875 67.5H24.875C26 67.5 26.75 68.25 26.75 69.375C26.75 70.5 26 71.25 24.875 71.25Z" fill="#0D8391"/>
<path d="M51.125 71.25H43.625C42.5 71.25 41.75 70.5 41.75 69.375C41.75 68.25 42.5 67.5 43.625 67.5H51.125C52.25 67.5 53 68.25 53 69.375C53 70.5 52.25 71.25 51.125 71.25Z" fill="#0D8391"/>
<path d="M43.625 18.75H32.375C31.25 18.75 30.5 18 30.5 16.875C30.5 15.75 31.25 15 32.375 15H43.625C44.75 15 45.5 15.75 45.5 16.875C45.5 18 44.75 18.75 43.625 18.75Z" fill="#0D8391"/>
<path d="M69.875 15H66.125C65.75 15 65.75 15 65.375 15L60.5 16.875V5.625C60.5 2.625 57.875 0 54.875 0H6.125C3.125 0 0.5 2.625 0.5 5.625V84.375C0.5 87.375 3.125 90 6.125 90H54.875C57.875 90 60.5 87.375 60.5 84.375V58.125L65.375 59.625C65.75 59.625 65.75 59.625 66.125 59.625H69.875C72.875 59.625 75.5 57 75.5 54V20.25C75.5 17.625 72.875 15 69.875 15ZM23 3.75H38V5.625C38 6.75 37.25 7.5 36.125 7.5H24.875C23.75 7.5 23 6.75 23 5.625V3.75ZM6.125 3.75H19.25V5.625C19.25 8.625 21.875 11.25 24.875 11.25H36.125C39.125 11.25 41.75 8.625 41.75 5.625V3.75H54.875C56 3.75 56.75 4.5 56.75 5.625V18L32 26.25H24.875C23.75 26.25 23 27 23 28.125V30H17.375C16.25 30 15.5 30.75 15.5 31.875V33.75H13.625C10.625 33.75 8 36.375 8 39.375V58.125C8 61.125 10.625 63.75 13.625 63.75H28.625L30.875 70.125C31.25 70.875 32 71.25 32.75 71.25H36.5C36.875 71.25 37.625 70.875 38 70.5C38.375 70.125 38.375 69.375 38.375 69L37.25 63.75H47.375C50.375 63.75 53 61.125 53 58.125V55.875L56.75 57V75H4.25V5.625C4.25 4.5 5 3.75 6.125 3.75ZM17.375 45H23V46.875C23 47.25 23 47.25 23 47.625L27.125 60H13.625C12.5 60 11.75 59.25 11.75 58.125V39.375C11.75 38.25 12.5 37.5 13.625 37.5H15.5V43.125C15.5 44.25 16.25 45 17.375 45ZM19.25 41.25V33.75H23V41.25H19.25ZM26.75 45V30H30.5V45H26.75ZM30.875 48.75L33.875 67.5L27.5 48.75H30.875ZM34.625 49.5L49.25 54.375V58.125C49.25 59.25 48.5 60 47.375 60H36.5L34.625 49.5ZM54.875 86.25H6.125C5 86.25 4.25 85.5 4.25 84.375V78.75H56.75V84.375C56.75 85.5 56 86.25 54.875 86.25ZM64.25 55.5L34.25 45.375V29.625L64.25 19.5V55.5ZM71.75 54.375C71.75 55.5 71 56.25 69.875 56.25H68V18.75H69.875C71 18.75 71.75 19.5 71.75 20.625V54.375Z" fill="#0D8391"/>
</svg>
