<svg width="32" height="32" viewBox="0 0 32 32" fill="none" xmlns="http://www.w3.org/2000/svg">
<g clip-path="url(#clip0_489_1250)">
<path fill-rule="evenodd" clip-rule="evenodd" d="M22.292 29.7082C22.3848 29.8013 22.4952 29.8752 22.6167 29.9256C22.7382 29.976 22.8684 30.002 23 30.002C23.1315 30.002 23.2617 29.976 23.3832 29.9256C23.5047 29.8752 23.6151 29.8013 23.708 29.7082L31.708 21.7082C31.8957 21.5204 32.0012 21.2657 32.0012 21.0002C32.0012 20.7346 31.8957 20.4799 31.708 20.2922C31.5202 20.1044 31.2655 19.9989 31 19.9989C30.7344 19.9989 30.4797 20.1044 30.292 20.2922L24 26.5862L24 7.00017C24 5.67408 23.4732 4.40231 22.5355 3.46463C21.5978 2.52695 20.326 2.00017 19 2.00017L2.99996 2.00017C2.73474 2.00017 2.48039 2.10552 2.29285 2.29306C2.10531 2.48059 1.99996 2.73495 1.99996 3.00016C1.99996 3.26538 2.10531 3.51974 2.29285 3.70727C2.48039 3.89481 2.73474 4.00016 2.99996 4.00016L19 4.00017C19.7956 4.00017 20.5587 4.31624 21.1213 4.87885C21.6839 5.44145 22 6.20452 22 7.00017L22 26.5862L15.708 20.2922C15.615 20.1992 15.5046 20.1254 15.3831 20.0751C15.2616 20.0248 15.1314 19.9989 15 19.9989C14.8685 19.9989 14.7383 20.0248 14.6168 20.0751C14.4953 20.1254 14.3849 20.1992 14.292 20.2922C14.199 20.3851 14.1252 20.4955 14.0749 20.617C14.0246 20.7385 13.9987 20.8687 13.9987 21.0002C13.9987 21.1317 14.0246 21.2619 14.0749 21.3833C14.1252 21.5048 14.199 21.6152 14.292 21.7082L22.292 29.7082Z" fill="#C3F922"/>
</g>
<defs>
<clipPath id="clip0_489_1250">
<rect width="32" height="32" fill="white" transform="translate(32 32) rotate(-180)"/>
</clipPath>
</defs>
</svg>
