<svg width="92" height="106" viewBox="0 0 92 106" fill="none" xmlns="http://www.w3.org/2000/svg">
<path d="M75.9666 30.0333C75.9666 13.4726 62.494 0 45.9332 0C29.3725 0 15.8999 13.4726 15.8999 30.0333C15.8999 38.7695 19.7636 47.064 26.3391 52.7438C25.3516 53.7084 24.7332 55.0476 24.7332 56.5333C24.7332 57.8954 25.265 59.1268 26.1112 60.0667C25.2632 61.0065 24.7332 62.2379 24.7332 63.6C24.7332 64.9621 25.265 66.1935 26.1112 67.1333C25.2632 68.0732 24.7332 69.3046 24.7332 70.6667C24.7332 72.9669 26.2155 74.9102 28.2666 75.6416V88.3333C28.2666 88.8086 28.4609 89.252 28.7877 89.5788L28.7842 89.5824L44.6842 105.482C45.0287 105.827 45.481 106 45.9332 106C46.3855 106 46.8378 105.827 47.1823 105.482L63.0823 89.5824L63.0787 89.5788C63.4056 89.252 63.5999 88.8086 63.5999 88.3333V75.6416C65.651 74.9102 67.1332 72.9669 67.1332 70.6667C67.1332 69.3046 66.6015 68.0732 65.7552 67.1333C66.6032 66.1935 67.1332 64.9621 67.1332 63.6C67.1332 62.2379 66.6015 61.0065 65.7552 60.0667C66.6032 59.1268 67.1332 57.8954 67.1332 56.5333C67.1332 55.0476 66.5149 53.7084 65.5273 52.7438C72.1029 47.064 75.9666 38.7695 75.9666 30.0333ZM45.9332 101.735L43.1313 98.9333H48.7352L45.9332 101.735ZM52.2685 95.4H39.598L32.8069 88.6072L35.3332 86.9235L39.6527 89.8032C40.2463 90.1989 41.0184 90.1989 41.612 89.8032L45.9332 86.9235L50.2527 89.8032C50.8463 90.1989 51.6184 90.1989 52.212 89.8032L56.5332 86.9235L59.0596 88.6089L52.2685 95.4ZM60.0666 85.0314L57.5137 83.3301C56.9201 82.9344 56.1481 82.9344 55.5545 83.3301L51.2332 86.2098L46.9137 83.3301C46.3201 82.9344 45.5481 82.9344 44.9545 83.3301L40.6332 86.2098L36.3137 83.3301C35.7201 82.9344 34.9481 82.9344 34.3545 83.3301L31.7999 85.0314V75.9667H60.0666V85.0314ZM61.8332 72.4333H30.0332C29.0598 72.4333 28.2666 71.6401 28.2666 70.6667C28.2666 69.6932 29.0598 68.9 30.0332 68.9H61.8332C62.8067 68.9 63.5999 69.6932 63.5999 70.6667C63.5999 71.6401 62.8067 72.4333 61.8332 72.4333ZM61.8332 65.3667H30.0332C29.0598 65.3667 28.2666 64.5734 28.2666 63.6C28.2666 62.6266 29.0598 61.8333 30.0332 61.8333H61.8332C62.8067 61.8333 63.5999 62.6266 63.5999 63.6C63.5999 64.5734 62.8067 65.3667 61.8332 65.3667ZM61.8332 58.3H30.0332C29.0598 58.3 28.2666 57.5068 28.2666 56.5333C28.2666 55.5599 29.0598 54.7667 30.0332 54.7667H61.8262L61.8474 54.7702C62.8137 54.7773 63.5999 55.5634 63.5999 56.5333C63.5999 57.5068 62.8067 58.3 61.8332 58.3ZM40.4071 31.5827C40.7304 31.8442 41.1244 31.9749 41.5166 31.9749C41.9088 31.9749 42.3027 31.8442 42.626 31.5827C44.7284 29.8867 45.9332 27.3886 45.9332 24.7333C45.9332 24.3252 45.8944 23.9224 45.8396 23.5232C45.8237 23.4083 45.8025 23.297 45.7813 23.1822C45.7265 22.8783 45.6559 22.578 45.5675 22.283C45.5393 22.184 45.5145 22.0851 45.4827 21.9879C45.3573 21.6116 45.2107 21.2442 45.0358 20.8891C45.004 20.8255 44.9651 20.7654 44.9315 20.7C44.7778 20.405 44.6047 20.1188 44.4174 19.8432C44.3856 19.7955 44.3627 19.7425 44.3291 19.6948C45.3626 19.3521 46.5074 19.3521 47.5409 19.6948C47.5073 19.7425 47.4844 19.7955 47.4526 19.8432C47.2653 20.1206 47.0939 20.405 46.9385 20.7C46.9049 20.7636 46.866 20.8237 46.8342 20.8891C46.6593 21.2442 46.5109 21.6134 46.3873 21.9879C46.3555 22.0851 46.3307 22.184 46.3025 22.283C46.2159 22.578 46.1452 22.8783 46.0887 23.1822C46.0675 23.2953 46.0463 23.4083 46.0304 23.5232C45.9721 23.9224 45.9332 24.3252 45.9332 24.7333C45.9332 27.3886 47.1381 29.8867 49.2404 31.5827C49.5637 31.8442 49.9577 31.9749 50.3499 31.9749C50.7421 31.9749 51.1361 31.8442 51.4594 31.5827C53.5617 29.8867 54.7666 27.3886 54.7666 24.7333C54.7666 24.3252 54.7277 23.9224 54.6729 23.5232C54.657 23.4083 54.6358 23.297 54.6146 23.1822C54.5599 22.8783 54.4892 22.578 54.4009 22.283C54.3726 22.184 54.3479 22.0851 54.3143 21.9879C54.1889 21.6116 54.0422 21.2442 53.8673 20.8891C53.8355 20.8219 53.7949 20.7601 53.7596 20.6947C53.6076 20.4032 53.438 20.1223 53.2543 19.8485C53.2207 19.7973 53.196 19.7425 53.1607 19.693C53.6783 19.5217 54.2154 19.4333 54.7666 19.4333C57.5897 19.4333 60.0666 22.0886 60.0666 25.1185C60.0666 27.7155 58.9218 30.1605 56.9254 31.823L50.1026 37.5099C49.6998 37.8455 49.4666 38.342 49.4666 38.8667V51.2333H42.3999V38.8667C42.3999 38.342 42.1667 37.8455 41.7639 37.5099L34.941 31.823C32.9447 30.1588 31.7999 27.7155 31.7999 25.1185C31.7999 22.0886 34.2768 19.4333 37.0999 19.4333C37.6493 19.4333 38.1882 19.5217 38.704 19.693C38.6687 19.7425 38.644 19.799 38.6104 19.8485C38.4249 20.1223 38.2571 20.4032 38.1051 20.6947C38.0716 20.7601 38.0309 20.8219 37.9974 20.8891C37.8225 21.2442 37.6758 21.6116 37.5504 21.9879C37.5186 22.0851 37.4939 22.1858 37.4638 22.283C37.3773 22.578 37.3066 22.8783 37.2501 23.1822C37.2289 23.2953 37.2077 23.4083 37.1918 23.5232C37.1388 23.9224 37.0999 24.3252 37.0999 24.7333C37.0999 27.3886 38.3048 29.8867 40.4071 31.5827ZM40.6332 24.7333C40.6332 24.3818 40.6827 24.0373 40.7516 23.6981C40.7693 23.6168 40.7869 23.5338 40.8081 23.4543C40.8929 23.1239 41.0007 22.7988 41.1491 22.4897C41.1615 22.4667 41.1756 22.4437 41.188 22.4208C41.2798 22.2388 41.4035 22.0727 41.5166 21.9014C41.6296 22.0727 41.7533 22.2388 41.8452 22.4208C41.8558 22.4437 41.8717 22.4649 41.884 22.4879C42.0324 22.7953 42.1402 23.1204 42.225 23.4525C42.2462 23.5338 42.2639 23.615 42.2815 23.6963C42.3504 24.0373 42.3999 24.3818 42.3999 24.7333C42.3999 25.0849 42.3504 25.4294 42.2815 25.7686C42.2639 25.8499 42.2462 25.9329 42.225 26.0124C42.1402 26.3428 42.0324 26.6678 41.884 26.977C41.8734 27 41.8575 27.0229 41.8452 27.0459C41.7533 27.2279 41.6296 27.3939 41.5166 27.5653C41.4035 27.3939 41.2798 27.2279 41.188 27.0459C41.1756 27.0229 41.1597 27 41.1491 26.977C41.0007 26.6678 40.8929 26.3428 40.8081 26.0124C40.7869 25.9311 40.7693 25.8499 40.7516 25.7686C40.6827 25.4294 40.6332 25.0849 40.6332 24.7333ZM49.4666 24.7333C49.4666 24.3818 49.516 24.0373 49.5849 23.6981C49.6026 23.6168 49.6203 23.5338 49.6415 23.4543C49.7263 23.1239 49.834 22.7988 49.9824 22.4897C49.9948 22.4667 50.0089 22.4437 50.0213 22.4208C50.1132 22.2388 50.2368 22.0727 50.3499 21.9014C50.463 22.0727 50.5866 22.2388 50.6785 22.4208C50.6891 22.4437 50.705 22.4649 50.7174 22.4879C50.8658 22.7953 50.9735 23.1204 51.0583 23.4525C51.0795 23.5338 51.0972 23.615 51.1149 23.6963C51.1838 24.0373 51.2332 24.3818 51.2332 24.7333C51.2332 25.0849 51.1838 25.4294 51.1149 25.7686C51.0972 25.8499 51.0795 25.9329 51.0583 26.0124C50.9735 26.3428 50.8658 26.6678 50.7174 26.977C50.7068 27 50.6909 27.0229 50.6785 27.0459C50.5866 27.2279 50.463 27.3939 50.3499 27.5653C50.2368 27.3939 50.1132 27.2279 50.0213 27.0459C50.0089 27.0229 49.993 27 49.9824 26.977C49.834 26.6678 49.7263 26.3428 49.6415 26.0124C49.6203 25.9311 49.6026 25.8499 49.5849 25.7686C49.516 25.4294 49.4666 25.0849 49.4666 24.7333ZM61.7944 51.2333H52.9999V39.6935L59.1868 34.5366C61.9922 32.201 63.5999 28.7666 63.5999 25.1185C63.5999 20.1223 59.5542 15.9 54.7666 15.9C53.1978 15.9 51.6943 16.3311 50.3446 17.1314C47.6257 15.5555 44.2443 15.5555 41.5236 17.1314C40.1721 16.3311 38.6687 15.9 37.0999 15.9C32.3122 15.9 28.2666 20.1223 28.2666 25.1185C28.2666 28.7666 29.8742 32.201 32.6797 34.5383L38.8666 39.6935V51.2333H30.0721C23.3994 46.2301 19.4332 38.3543 19.4332 30.0333C19.4332 15.4212 31.3211 3.53333 45.9332 3.53333C60.5453 3.53333 72.4332 15.4212 72.4332 30.0333C72.4332 38.3543 68.4671 46.2301 61.7944 51.2333Z" fill="#073945"/>
<path d="M80.016 0.520625L72.9492 7.5874L75.4476 10.0858L82.5144 3.01904L80.016 0.520625Z" fill="#073945"/>
<path d="M75.4452 49.9811L72.9468 52.4795L80.0136 59.5463L82.512 57.0479L75.4452 49.9811Z" fill="#073945"/>
<path d="M91.8666 28.2666H81.2666V31.7999H91.8666V28.2666Z" fill="#073945"/>
<path d="M11.8495 0.518182L9.35107 3.0166L16.4179 10.0834L18.9163 7.58496L11.8495 0.518182Z" fill="#073945"/>
<path d="M16.4171 49.983L9.35034 57.0498L11.8488 59.5482L18.9155 52.4814L16.4171 49.983Z" fill="#073945"/>
<path d="M10.6 28.2666H0V31.7999H10.6V28.2666Z" fill="#073945"/>
<path d="M70.6666 84.7998H67.1333V88.3331H70.6666V84.7998Z" fill="#073945"/>
<path d="M77.7333 84.7998H74.2V88.3331H77.7333V84.7998Z" fill="#073945"/>
<path d="M84.7999 84.7998H81.2666V88.3331H84.7999V84.7998Z" fill="#073945"/>
<path d="M10.6 84.7998H7.06665V88.3331H10.6V84.7998Z" fill="#073945"/>
<path d="M17.6666 84.7998H14.1333V88.3331H17.6666V84.7998Z" fill="#073945"/>
<path d="M24.7333 84.7998H21.2V88.3331H24.7333V84.7998Z" fill="#073945"/>
</svg>
